<svg width="19" height="19" viewBox="0 0 19 19" fill="none" xmlns="http://www.w3.org/2000/svg">
<path d="M18.4434 9.5C18.4434 14.4188 14.4188 18.4434 9.5 18.4434C4.58123 18.4434 0.556641 14.4188 0.556641 9.5C0.556641 4.58123 4.58123 0.556641 9.5 0.556641C14.4188 0.556641 18.4434 4.58123 18.4434 9.5Z" stroke="#4DA528" stroke-miterlimit="10" stroke-linecap="round" stroke-linejoin="round"/>
<path d="M10.6133 0.625553L11.2256 2.46161C11.4714 3.18376 10.9345 3.93359 10.1717 3.93359H9.50004C8.88517 3.93359 8.38676 4.43201 8.38676 5.04688V5.42213C8.38676 5.84087 8.18369 6.25794 7.81345 6.44783C6.91622 6.90798 6.49941 7.95187 6.95036 8.85378L7.27347 9.5L4.74532 7.81457C4.27826 7.50318 4.10311 6.88397 4.37334 6.39194C4.74492 5.71529 4.37375 4.87858 3.63308 4.69341L2.19977 4.34439" stroke="#4DA528" stroke-miterlimit="10" stroke-linecap="round" stroke-linejoin="round"/>
<path d="M10.0566 10.6133C10.3978 11.2956 11.0951 11.7266 11.858 11.7266H12.8398V12.8398C12.8398 13.4598 12.5865 14.0206 12.1776 14.4243C11.0184 15.5689 10.0152 16.8979 9.5 18.4434L9.09851 17.6404C8.63042 16.7042 8.38672 15.6348 8.38672 14.5882C8.38672 14.1816 8.22518 13.7916 7.93762 13.5041L7.27344 12.8398L7.60523 12.508C8.07192 12.0414 8.18763 11.3284 7.89246 10.738L7.27344 9.5H8.25531C9.01814 9.5 9.71549 9.93099 10.0566 10.6133Z" stroke="#4DA528" stroke-miterlimit="10" stroke-linecap="round" stroke-linejoin="round"/>
<path d="M15.4269 2.85208L15.1495 3.68426C15.0948 3.84821 15.0028 3.9972 14.8806 4.1194L14.2792 4.7208C14.0704 4.92957 13.9531 5.21272 13.9531 5.508V6.16016C13.9531 6.77498 14.4515 7.27344 15.0664 7.27344C15.6812 7.27344 16.1797 7.77185 16.1797 8.38672V9.23719C16.1797 9.41001 16.1394 9.58045 16.0622 9.73505L15.872 10.1154C15.5019 10.8556 16.0401 11.7266 16.8677 11.7266H18.1628" stroke="#4DA528" stroke-miterlimit="10" stroke-linecap="round" stroke-linejoin="round"/>
</svg>
