<svg width="325" height="73" viewBox="0 0 325 73" fill="none" xmlns="http://www.w3.org/2000/svg">
<path d="M321.396 54.0758C320.659 54.0758 319.823 53.8864 319.226 54.1073C318.011 54.5491 316.617 54.4702 315.482 54.975C314.606 55.3537 313.651 55.2906 312.755 55.6692C311.54 56.1741 310.783 55.7008 310.146 54.3755C309.848 53.7444 308.972 53.4447 308.155 53.6971C307.817 53.8075 307.518 54.0284 307.18 54.0284C304.611 54.06 302.043 54.0915 299.494 54.0442C298.558 54.0284 297.842 53.2238 296.766 53.4447C296.468 53.0503 296.169 52.6401 295.831 52.2614C295.532 51.9301 294.955 51.5988 294.596 51.8355C293.023 52.8609 290.933 51.8512 289.36 52.7505C289.28 52.7978 288.802 52.4665 288.563 52.2614C288.165 51.9143 288.663 51.7723 288.862 51.583C289.181 51.2517 289.638 51.157 290.156 51.1413C290.873 51.1097 291.61 51.0939 292.326 51.0151C292.585 50.9835 292.545 50.7942 292.326 50.6049C292.028 50.3524 292.068 50.1473 292.506 50.0053C292.725 49.9422 293.123 49.8791 293.123 49.8002C293.123 49.4374 292.745 49.4847 292.426 49.4689C291.351 49.39 290.315 49.4532 289.28 48.9325C287.966 48.2699 286.453 47.7966 284.9 48.7274C284.661 48.8694 284.203 48.8063 283.825 48.8063C282.61 48.8063 281.376 48.8063 280.161 48.8063C279.185 48.8063 278.21 48.8379 277.413 48.2857C276.06 48.3488 274.964 47.5442 273.571 47.6388C272.117 47.7493 270.644 47.6862 269.17 47.7019C267.498 48.5381 265.626 48.1279 263.854 48.2383C262.819 48.3015 261.923 48.2383 261.266 47.5126C260.868 47.0709 260.251 47.0551 259.613 47.0866C259.155 47.1024 258.698 47.0709 258.24 47.0551C258.259 46.7396 258.518 46.566 258.877 46.566C264.372 46.5345 269.867 46.5187 275.363 46.5029C275.701 46.5029 276.119 46.5976 276.378 46.7553C276.896 47.0709 277.234 46.8815 277.573 46.5818C277.991 46.2031 278.389 45.9349 279.046 46.3609C279.285 46.5187 279.743 46.4713 280.101 46.4871C282.132 46.5976 284.243 46.2505 286.174 47.0393C288.623 47.0551 291.072 47.0866 293.501 47.0866C293.859 47.0866 294.278 47.0709 294.536 46.9131C295.174 46.5187 295.89 46.5187 296.627 46.5345C297.961 46.566 299.016 46.282 299.375 45.1145C299.434 44.941 299.673 44.8148 299.833 44.657C300.052 44.4204 300.052 44.4046 300.987 44.6097C301.346 44.6886 301.684 44.7832 302.003 44.5624C302.461 44.231 302.779 44.3415 303.198 44.657C303.715 45.0514 303.357 45.2723 303.078 45.5721C302.959 45.7141 302.919 45.9665 302.979 46.1085C303.198 46.5187 303.556 46.282 303.795 46.1243C304.133 45.8876 304.452 45.9665 304.81 46.0296L307.518 46.1243C307.996 45.8403 308.394 46.0454 308.852 46.2189C309.29 46.3767 310.047 46.0454 310.186 45.6194C310.326 45.225 310.186 44.8463 309.529 44.7832C309.41 44.7675 309.29 44.7359 309.191 44.6886C309.091 44.6412 308.991 44.5624 308.932 44.4835C308.912 44.4519 309.051 44.3099 309.131 44.3099C310.087 44.2468 311.042 44.1995 311.998 44.1206C312.416 44.0891 312.635 43.4738 313.193 43.884C314.009 44.4835 315.124 43.8682 315.96 44.3415C316.139 44.4519 316.418 44.657 316.538 44.6097C317.294 44.3415 318.011 44.0259 318.748 43.7262C319.305 44.2153 319.743 43.8208 320.301 43.6789C320.858 43.5211 321.515 43.6473 322.113 43.5842C322.292 43.5684 322.451 43.3791 322.61 43.2844C322.511 43.2213 322.431 43.1267 322.332 43.1109C321.296 42.8585 320.141 43.2371 319.146 42.7638C318.13 42.2589 316.996 42.606 315.94 42.4325C315.701 42.4009 315.383 42.4798 315.223 42.3694C314.049 41.5805 312.655 41.9119 311.341 41.8961C307.06 41.8488 302.779 41.8488 298.519 41.8172C298.24 41.8172 297.802 41.7541 298.14 41.3123C298.379 40.9968 298.519 40.6182 298.558 40.2395C298.618 39.782 298.857 39.5453 299.434 39.5296C300.41 39.5138 301.386 39.5138 302.361 39.4822C302.54 39.4665 302.879 39.2614 302.859 39.1667C302.819 38.9143 302.66 38.6618 302.521 38.4252C302.481 38.3779 302.341 38.3621 302.222 38.3463C301.923 37.589 301.087 37.731 300.47 37.8888C299.912 38.0308 299.514 38.3779 298.957 37.8572C298.658 37.5732 298.24 37.3366 297.802 37.1946C297.065 36.958 297.065 36.8475 297.802 36.6109C298.22 36.4689 298.578 36.1849 298.957 35.964L300.888 35.0647C301.605 34.7808 302.262 34.8754 302.959 35.1594C303.377 35.3172 304.014 35.5223 304.313 35.3803C305.408 34.8912 306.642 35.0016 307.757 34.6703C307.896 34.6388 307.996 34.339 307.976 34.1812C307.956 34.0235 307.777 33.771 307.618 33.7553C306.901 33.6606 306.184 33.6448 305.467 33.5502C305.228 33.5186 305.268 33.3135 305.507 33.1242C305.746 32.9507 305.766 32.7771 305.567 32.6824C304.631 32.2407 303.337 32.9507 302.521 32.0829C302.162 32.3354 301.784 32.5878 301.426 32.856C301.027 33.14 300.53 33.1084 300.052 33.0926C299.395 33.0611 299.514 32.4773 299.235 32.3354C298.24 31.7989 299.574 30.8839 298.618 30.3633C298.439 30.2686 298.558 29.8111 298.578 29.5271C298.578 29.4482 298.698 29.3535 298.777 29.2904C298.937 29.1642 299.116 29.2273 299.235 29.4798C299.335 29.6533 299.335 29.9215 299.474 29.9846C299.992 30.1897 299.952 29.7953 300.052 29.5744C300.231 29.1169 300.709 29.0222 301.187 29.0222C302.521 29.0065 303.874 29.038 305.208 29.0222C305.627 29.0222 305.925 28.612 305.885 28.1545C305.846 27.7443 305.766 27.3815 305.149 27.3026C304.751 27.2552 304.551 27.0817 304.472 26.7346C304.392 26.356 304.671 26.1035 305.447 26.1666C306.742 26.2613 308.155 25.7249 309.27 26.6715C310.963 26.7346 312.655 26.8608 314.188 26.1035C314.527 25.93 314.646 25.6618 314.566 25.3778C314.527 25.2358 314.248 25.0307 314.089 25.0465C313.332 25.0623 312.715 24.9203 312.078 24.5416C311.44 24.163 310.584 25.2989 309.868 24.4785C308.633 24.7941 307.259 24.7941 306.104 25.1727C303.954 25.8984 301.824 25.5356 299.673 25.4567C299.514 25.4567 299.315 24.9992 299.255 24.7467C299.195 24.4785 299.116 24.163 299.514 23.9579L302.102 23.4846C302.62 24.021 303.397 22.9324 303.875 23.6581C304.631 23.4846 305.408 23.311 306.164 23.1217C306.264 23.0902 306.343 22.9955 306.423 22.9324C306.323 22.8693 306.244 22.7746 306.144 22.7431C305.925 22.68 305.686 22.6326 305.447 22.6326C304.751 22.6169 304.213 22.6169 304.83 21.8596C305.089 21.5283 304.492 21.5125 304.213 21.5125C300.669 21.4967 297.125 21.4967 293.581 21.4809C292.605 21.4809 291.63 21.4967 290.654 21.4967C289.678 21.4809 289.778 21.1654 290.216 20.6448C290.315 20.5343 289.877 20.1872 289.798 19.919C289.459 18.9251 288.643 18.5149 287.389 18.5622C286.652 18.578 285.915 18.6253 285.198 18.578C283.546 18.4676 281.814 18.8778 280.241 18.0732C280.081 17.9943 279.584 18.2309 279.305 18.3887C278.947 18.578 278.608 18.5622 278.289 18.4202C277.891 18.2467 277.991 17.9154 278.15 17.663C278.548 17.0003 278.966 16.3377 279.385 15.6909C277.971 15.5489 277.911 15.5015 278.449 14.4287C278.688 13.9396 278.27 14.0185 278.011 13.9081C277.194 13.5452 277.174 13.4979 277.493 12.8668C277.573 12.7091 277.692 12.5513 277.812 12.4093C277.593 12.362 277.354 12.22 277.155 12.2673C276.816 12.3304 276.318 12.6775 276.239 12.6144C275.144 11.7467 274.268 12.6459 273.312 12.8195C272.993 12.8668 272.555 13.2455 272.436 13.1666C271.261 12.4882 269.589 13.0246 268.493 12.2042C268.653 11.4311 269.29 11.0367 270.226 11.0052C271.181 10.9736 272.077 11.0052 273.033 11.3523C274.765 11.9833 275.402 11.6836 276.159 10.4845C276.358 10.169 276.318 9.97967 276.059 9.77457C275.621 9.42748 275.164 9.04884 274.526 9.45904C274.009 9.77457 273.352 10.0586 272.874 9.8219C271.659 9.22239 270.365 9.28549 269.031 9.25394C268.892 9.25394 268.772 9.03307 268.653 8.92263C268.752 8.85952 268.832 8.74908 268.932 8.73331C269.887 8.6702 270.843 8.63865 271.799 8.57554C271.878 8.57554 271.958 8.4651 272.057 8.40199C271.958 8.33889 271.858 8.22845 271.759 8.22845C270.345 8.18112 268.892 7.83403 267.538 8.51243C267.438 8.57554 267.12 8.4651 266.98 8.37044C266.403 7.97602 265.905 8.10224 265.368 8.44932C264.91 8.74908 264.352 8.71753 264.193 8.29156C263.954 7.64471 263.755 7.64471 263.018 7.91291C261.983 8.29156 261.903 8.21267 261.107 7.34495C260.788 6.99786 260.549 7.15563 260.29 7.32917C259.773 7.67626 259.355 8.26 258.538 7.64471C258.419 7.55005 258.021 7.53427 257.861 7.62893C256.169 8.52821 254.337 7.94447 252.565 7.94447C251.749 7.28184 251.072 7.7867 250.315 8.08646C249.778 8.29156 249.121 7.96024 248.623 7.43961C248.264 7.06097 247.906 6.50878 247.428 6.4299C246.393 6.25635 245.278 6.44567 244.322 5.87771C244.183 5.79883 243.705 6.08281 243.366 6.16169C242.928 6.25635 242.49 6.33524 242.052 6.41412C241.993 6.71388 241.774 6.93475 241.415 6.95053C239.464 7.09252 237.572 6.98208 235.9 5.98815C235.283 5.62528 234.805 5.90926 234.646 6.50878C234.566 6.82432 234.227 6.99786 233.829 6.9032C233.272 6.76121 232.734 6.55611 232.197 6.35101C231.878 6.24058 231.838 6.05126 232.077 5.94082C232.495 5.7515 232.933 5.60951 233.351 5.45174C233.77 5.29397 234.188 5.12043 234.606 4.94688C234.247 4.58402 233.75 4.67868 233.272 4.6629C232.854 4.64712 232.694 4.44202 232.475 4.1896C231.759 3.35343 231.46 3.3061 231.102 4.00027C230.425 5.23086 229.031 5.48329 227.677 5.79883C227.418 5.86193 227 5.64106 226.721 5.49907C226.482 5.37285 226.841 4.868 227.319 4.64712C227.518 4.55246 227.776 4.50513 227.956 4.39469C228.155 4.26848 228.075 3.74785 227.856 3.65319C226.442 3.05367 224.969 2.73813 223.376 3.03789C223.217 3.06945 223.117 3.32187 223.038 3.47964C222.918 3.70052 223.018 3.90561 223.317 3.93717C223.914 4.01605 224.511 4.06338 225.108 4.07916C225.527 4.09494 225.865 4.23693 225.845 4.53668C225.825 4.78911 225.646 5.08887 225.427 5.27819C224.531 5.95659 223.476 6.35101 222.202 6.38257C221.027 6.41412 219.792 6.25635 218.737 6.9032C218.618 6.96631 218.299 6.84009 218.08 6.79276C218.14 6.635 218.16 6.46145 218.279 6.31946C218.657 5.89349 218.598 5.15198 219.613 5.12043C219.892 5.10465 220.171 4.77334 220.449 4.58402C220.529 4.52091 220.648 4.36314 220.648 4.34736C220.489 4.23693 220.33 4.09494 220.131 4.04761C219.215 3.7794 218.657 4.48936 217.881 4.58402C217.861 4.04761 217.941 3.43231 216.846 3.49542C216.607 3.51119 216.268 3.54275 216.149 3.44809C215.492 2.92745 214.954 2.97478 214.436 3.55853C214.098 3.93717 213.74 3.95294 213.282 3.63741C212.824 3.32187 212.425 3.59008 212.007 3.76362C211.012 4.17382 210.016 4.22115 208.981 3.71629C208.145 3.3061 207.229 2.84857 206.154 3.41653C206.034 3.47964 205.716 3.33765 205.536 3.24299C204.541 2.70658 203.446 2.72236 202.49 3.17988C200.977 3.90561 199.085 2.94323 197.692 3.95294C197.214 3.68474 196.756 3.38498 196.597 2.91168C196.358 2.8959 196.139 2.8959 195.9 2.86435C195.721 2.84857 194.008 2.88012 193.749 2.88012C193.391 2.88012 193.013 2.88012 192.674 2.81702C192.336 2.76969 192.296 2.61192 192.475 2.4226C192.873 2.02818 192.853 1.8073 192.117 1.75997C191.081 1.68109 190.365 2.31216 189.449 2.50148C189.588 2.73813 189.907 3.05367 189.827 3.21144C189.608 3.60586 188.234 3.54275 187.935 3.17988C187.677 2.84857 187.955 3.29032 188.155 2.94323C188.314 2.65925 188.433 2.39104 187.975 2.34371C187.259 2.28061 186.522 2.32794 185.785 2.32794C185.168 2.32794 184.571 2.32794 183.953 2.28061C183.257 2.23328 182.54 2.39104 181.863 1.99662C181.186 1.61798 180.668 2.51726 179.931 2.28061C179.832 2.24905 179.673 2.29638 179.573 2.24905C179.215 2.12284 178.996 1.91774 179.035 1.60221C179.155 0.529385 179.175 0.529385 178.319 0.529385C177.463 0.529385 176.427 0.75026 175.81 0.434724C174.635 -0.149016 173.461 0.0560817 172.286 0.00875138C171.708 -0.00702539 171.031 -0.0228022 170.534 0.166519C169.897 0.418947 170.295 1.03424 170.195 1.49177C170.096 1.90196 169.877 2.2175 169.518 2.46993C169.379 2.56459 169.16 2.61192 168.961 2.64347C168.921 2.64347 168.782 2.50148 168.782 2.4226C168.742 2.23328 168.762 2.04396 168.742 1.83886C168.602 0.403171 168.543 0.371617 166.95 1.00269C166.333 1.23934 165.715 1.47599 165.098 1.69687C165.078 1.77575 165.078 1.88619 165.018 1.93352C164.103 2.80124 164.023 2.84857 163.167 2.15439C162.331 1.61798 161.614 1.64954 160.778 1.91774C160.339 2.05973 159.702 2.13862 159.503 2.40682C159.005 3.13255 158.508 3.66896 157.333 3.55853C157.214 3.54275 156.955 3.81095 156.935 3.96872C156.835 4.47358 156.576 4.67868 156.079 4.26848C155.362 3.70052 154.745 3.14833 153.669 3.90561C153.371 4.11071 152.495 4.1896 152.316 4.03183C151.499 3.27454 150.663 3.7794 150.125 4.07916C148.891 4.77334 147.477 4.868 146.342 4.47358C145.148 4.06338 144.013 4.09494 142.818 4.06338C141.843 4.03183 140.867 4.07916 139.891 4.03183C139.533 4.01605 139.314 3.79518 139.274 3.49542C138.557 3.47964 137.701 3.27454 137.184 3.52697C135.83 4.15804 134.396 3.9845 132.982 4.07916C132.524 4.11071 132.106 4.33159 131.668 4.47358C131.33 4.58402 130.952 4.6629 130.693 4.41047C130.633 4.34736 130.892 4.12649 130.932 3.95294C131.051 3.59008 131.151 3.22721 131.19 2.86435C131.21 2.72236 130.971 2.56459 130.852 2.4226C130.772 2.50148 130.653 2.56459 130.633 2.64347C130.314 3.82673 129.299 4.12649 127.925 4.03183C127.208 3.9845 126.492 4.04761 125.835 3.66896C125.616 3.54275 125.098 3.54275 124.859 3.66896C124.202 4.00027 123.366 4.26848 122.828 3.90561C121.992 3.33765 121.494 4.20537 120.956 4.01605C120.16 3.71629 119.503 3.85828 118.726 4.01605C117.93 4.17382 117.054 4.03183 116.218 3.96872C115.879 3.93717 115.919 3.7794 116.138 3.55853C116.337 3.35343 116.576 3.02211 116.497 2.81702C116.218 2.15439 115.82 2.75391 115.461 2.81702C114.426 3.00634 113.231 2.6908 112.355 3.43231C111.3 3.3692 110.205 3.73207 109.169 3.17988C108.811 2.99056 108.273 2.92745 107.816 2.91168C106.72 2.88012 105.625 2.91168 104.53 2.8959C102.838 2.88012 101.305 3.73207 99.5726 3.52697C99.473 3.51119 99.3535 3.60586 99.2739 3.66896C99.2142 3.71629 99.1544 3.81095 99.1743 3.84251C99.2341 3.92139 99.3336 4.01605 99.4332 4.03183C99.7318 4.09494 100.269 4.09494 100.17 4.39469C100.07 4.69445 99.6721 5.18353 99.1943 4.99421C98.6965 4.78911 98.4377 4.69445 97.9996 5.05732C97.7209 5.29397 97.482 5.76727 96.9643 5.57795C96.7652 5.49907 96.7851 5.0731 96.7253 4.78911C96.7054 4.69445 96.7851 4.56824 96.7253 4.50513C96.6059 4.39469 96.3471 4.22115 96.2873 4.2527C95.7697 4.50513 95.1723 4.85222 94.6746 4.39469C94.0773 3.84251 93.699 4.82067 93.2012 4.44202C92.6835 4.04761 92.4048 4.37892 92.0464 4.63135C91.5486 5.00999 91.6482 5.49907 91.5287 5.97237C91.4491 6.27213 91.0508 6.39834 90.6725 6.31946C90.4734 6.28791 90.2743 6.11436 90.1947 5.97237C90.1151 5.79883 90.1748 5.59373 90.1549 5.40441C90.0752 4.77334 90.0354 4.85222 88.7811 4.39469C88.0842 4.12649 87.447 3.88984 86.7701 4.23693C85.6352 4.82067 84.5401 4.91533 83.3853 4.30003C82.5092 4.44202 81.6332 4.89955 80.8168 4.14227C80.7372 4.07916 80.2992 4.12649 80.1598 4.23693C79.5625 4.69445 78.8457 4.6629 78.109 4.64712C77.1334 4.63135 76.1578 4.64712 75.1822 4.63135C74.4853 4.63135 74.0473 4.83644 73.9278 5.42018C73.888 5.67261 73.649 5.73572 73.43 5.60951C73.0119 5.38863 72.6535 5.12043 72.4942 5.8146C72.3549 6.44567 71.6182 6.91898 71.6978 7.66049C71.7376 8.0549 71.1403 8.22845 70.6027 8.00758C70.1846 7.84981 69.7665 7.3765 69.3484 7.61316C68.6316 8.03913 67.7953 8.05491 66.9989 8.26C66.8994 8.29156 66.8396 8.38622 66.7799 8.44932C66.979 8.54399 67.198 8.62287 67.3971 8.73331C67.5763 8.82797 67.9148 8.92263 67.9148 9.01729C67.9148 9.41171 66.6206 9.99545 66.2224 9.79035C65.7446 9.5537 65.3065 9.25394 65.1672 8.78064C64.769 8.93841 64.3906 9.1435 63.9725 9.22239C63.4947 9.31705 63.0965 9.17506 62.977 8.74908C61.7425 9.17506 60.8665 10.3583 59.194 9.91656C58.2781 10.737 56.8844 10.2637 55.8291 10.6896C54.6544 11.1629 53.4996 11.6362 52.3249 12.1095C51.9068 12.2831 51.4687 12.4408 51.0705 12.6459C50.8515 12.7564 50.6325 12.7722 50.4931 12.5355C49.8759 11.4154 47.7255 11.9833 47.2477 10.6423C47.1481 10.3425 45.7544 10.3583 45.6548 10.6896C45.3164 11.6362 44.3607 11.5889 43.4846 11.8098C43.3452 11.8413 43.3651 12.2831 43.3054 12.5355C44.5797 12.7091 44.7191 14.3183 46.3716 14.0343C46.6703 13.987 46.73 14.2078 46.5707 14.4129C46.4114 14.6023 45.9933 14.8389 46.5508 15.0598C46.6504 15.0913 46.7897 15.1071 46.8893 15.1071C47.845 15.044 48.9202 15.3753 49.6967 14.8231C50.7719 14.0659 51.3891 15.328 52.2851 15.0913C52.5041 15.0282 52.6833 14.8705 52.8824 14.76C53.1014 14.6338 53.3204 14.6969 53.3602 14.9336C53.4 15.0913 53.3403 15.4227 53.2208 15.4384C51.9864 15.7224 50.6524 15.754 49.4777 16.2431C46.6504 16.0537 44.3009 17.7892 41.4338 17.4894C41.3343 17.4736 41.2347 17.5999 41.1152 17.6156C39.9604 17.805 39.0645 19.1775 37.611 18.1205C37.0933 18.3414 36.2571 18.4676 36.0978 18.8147C35.4208 20.1399 33.7683 19.9506 32.5537 20.2977C31.379 20.629 29.9255 20.0768 28.7707 20.8183C27.8947 19.8402 27.1181 20.7237 26.2819 20.8656C25.5651 20.9919 24.47 19.9664 24.8882 19.5404C25.7443 18.6727 25.4257 17.7103 25.585 16.7795C25.6249 16.4955 25.8837 16.3219 26.2421 16.2746C26.3416 15.8802 26.6602 15.7066 27.1779 15.6909C27.7354 15.6909 28.3128 15.7066 28.4721 15.1387C29.2685 14.9967 29.1689 14.5076 29.1291 14.0343C29.0893 13.5768 28.7508 13.3717 28.2132 13.3559C27.5363 13.3243 27.0186 13.5926 26.6602 13.987C26.3217 14.3498 26.1226 14.8231 25.804 15.2018C25.5253 15.5173 25.0674 15.7855 24.5696 15.612C24.3307 15.5331 24.1913 15.186 24.0718 14.9494C23.9922 14.7758 24.0718 14.5392 23.9723 14.3814C23.8727 14.2394 23.6537 14.1132 23.4546 14.0501C23.0365 13.9396 22.698 14.1447 22.6582 14.4287C22.5586 15.1071 22.6582 15.8329 21.3242 15.7066C21.1052 15.6909 20.8463 15.7697 20.6671 15.8802C18.5168 16.9846 16.3067 17.4105 13.8776 16.3693C13.5591 16.2273 12.9418 16.4166 12.5038 16.5428C12.1852 16.6375 11.9065 16.8741 11.6477 17.0792C11.13 17.4579 10.5526 17.5367 10.0747 17.1108C9.23849 16.3693 8.46198 15.9906 7.34699 16.8426C6.94877 17.1581 6.31164 17.3001 5.75414 17.4736C4.7188 17.7734 4.26085 18.3256 4.22103 19.2091C4.20112 19.8402 4.47987 20.5501 3.76309 21.1339C3.46443 21.3705 4.02193 21.5598 4.20112 21.7491C4.47987 22.0331 4.77853 21.97 5.05727 21.7491C5.41566 21.4809 5.69441 21.1812 5.73423 20.771C5.73423 20.6921 5.95325 20.5659 5.95325 20.5659C6.11253 20.6605 6.35146 20.7552 6.37137 20.8656C6.6103 22.4275 6.51074 22.538 4.73871 23.311C4.00202 23.6266 3.28524 23.9737 2.58837 24.3365C2.40917 24.4312 2.32953 24.6363 2.19016 24.7783C2.40917 24.8414 2.62819 24.9676 2.84721 24.9676C3.44452 24.9992 4.06175 24.9834 4.67897 24.9992C5.49531 25.0307 5.49531 25.0465 5.71432 26.1666C5.91343 26.2455 6.19217 26.2929 6.232 26.4033C6.37137 26.7504 6.25191 27.2237 6.51074 27.4919C7.00851 28.0441 7.12797 28.4385 6.33155 28.8802C5.8537 29.1485 5.4754 29.5586 5.05727 29.89C5.99307 30.9154 4.95772 30.7419 4.20112 30.8523C3.76309 30.9154 3.38479 31.231 2.92685 31.3414C2.03087 31.5623 1.31409 32.1776 0.278747 32.0672C0.199105 32.0514 0.0995527 32.1776 0 32.2407C0.159284 32.3511 0.298658 32.5405 0.457942 32.5562C2.03087 32.5878 3.60381 32.572 5.17674 32.6036C5.27629 32.6036 5.51522 32.9033 5.4754 32.9349C5.11701 33.3135 4.49978 33.6291 4.36041 34.055C4.12148 34.7808 3.64363 34.9543 2.80738 34.8912C2.449 34.8596 2.0707 34.8754 1.75213 34.9701C1.15481 35.1594 1.65257 35.3803 1.77204 35.5854C1.87159 35.7431 1.95123 35.9167 2.05078 36.0745C2.40917 36.248 2.74765 36.5162 3.12595 36.5478C4.20112 36.6266 4.26085 37.1788 4.26085 37.7941C5.49531 37.9046 6.31164 37.2262 7.22752 36.8791C8.26287 36.5004 9.05929 36.4846 9.79598 37.2104C10.1942 37.6048 10.7119 37.7941 11.3888 37.7626C12.1056 37.731 12.8423 37.8099 13.579 37.8099C14.4152 37.8099 14.4949 38.2201 14.5745 38.7565C14.6741 39.3718 14.8333 39.4665 15.2714 39.214C16.3067 38.6145 17.7602 39.3718 18.6761 38.5041C18.7557 38.6776 18.915 38.8354 18.915 39.0089C18.915 39.3402 18.6761 39.498 18.238 39.5453C18.019 39.5769 17.8398 39.7189 17.6208 39.8135C17.8199 39.9082 17.9792 40.0502 18.1982 40.0818C18.5566 40.1291 18.9349 40.1449 19.2933 40.1133C20.3486 40.0186 21.0653 40.2869 21.4835 41.123C21.6427 41.4386 22.479 41.2177 22.5785 40.8075C22.6383 40.5235 22.5586 40.2237 22.6383 39.9398C22.6781 39.8135 22.9369 39.7347 23.0962 39.6558C23.1161 39.64 23.2754 39.782 23.3351 39.8609C24.1117 40.9021 24.9081 41.0284 25.4855 40.1291C25.9832 39.3402 26.5806 38.9616 27.6955 38.9616C28.6513 38.9458 29.7662 39.2614 30.5228 38.7407C31.6179 37.9992 32.2949 39.072 33.1909 38.9458C33.5293 38.8985 33.8877 38.8512 34.2262 38.7723C34.5647 38.6934 34.8633 38.5356 35.2018 38.4725C35.6598 38.3779 35.9186 39.0563 36.4363 38.725C36.8345 38.4725 37.3721 38.5041 37.7504 38.3305C39.1043 37.7626 40.5578 37.8415 41.9913 37.8257C42.6085 37.8099 43.2058 37.7941 43.8231 37.8099C44.281 37.8257 45.0575 37.6679 45.1173 38.0466C45.1969 38.4567 44.4403 38.3148 44.0421 38.3936C43.1262 38.5672 42.3895 39.0878 41.3144 39.0247C40.2591 38.9616 39.3631 39.64 38.2083 39.5769C37.3322 39.5296 37.2128 39.8451 37.7504 40.7286C37.9893 41.1388 37.7105 41.2492 37.4119 41.2808C36.8146 41.3439 36.1973 41.3281 35.6 41.3755C35.5005 41.3755 35.4009 41.4859 35.3014 41.5332C35.4407 41.6437 35.5801 41.8014 35.7394 41.833C36.0978 41.8803 36.4562 41.8488 36.8345 41.8803C36.934 41.8961 37.1132 42.0381 37.0933 42.0696C37.0137 42.1958 36.8942 42.4009 36.7548 42.4167C36.277 42.464 35.7792 42.4483 35.3014 42.4325C34.7439 42.4167 34.5249 42.1958 34.4054 41.7383C34.0669 40.492 33.5891 40.1449 32.3944 40.1291C31.5383 40.1133 30.6821 40.1291 29.826 40.1291L26.4611 40.9337C25.6249 41.2808 25.6249 42.0538 25.1271 42.5745C24.9479 42.748 25.0076 42.9373 25.3461 42.9689C25.9434 43.032 26.5606 42.9847 27.158 43.032C27.5164 43.0636 27.7553 43.2844 27.7553 43.6C26.481 44.0259 25.3461 44.657 23.8528 44.8148C22.4392 44.9726 21.1052 45.4616 19.6119 45.3354C18.915 45.2881 18.1783 45.2408 17.5014 45.6194C16.7846 46.0296 16.2868 45.1461 15.5302 45.3354C15.0723 45.4459 14.475 45.3196 14.1365 45.509C13.2604 46.0296 12.2649 45.8718 11.3092 45.9192C10.5725 45.9665 9.8358 45.998 9.11902 45.9192C8.18323 45.8245 7.66555 46.5187 6.74967 46.5502C5.71432 46.5818 5.71432 46.7396 5.77405 47.7335C5.83379 48.759 6.74967 49.2954 8.1235 49.0114C9.35795 48.759 10.4928 48.6485 11.4486 49.5005C11.6676 49.7056 12.0658 49.9265 12.3644 49.9107C13.6785 49.8476 15.0325 50.242 16.2868 49.6109C16.9439 49.2796 17.6805 49.39 18.3376 49.7371C18.5367 49.8318 18.8553 49.9738 18.9946 49.9107C20.1096 49.3743 20.9658 49.8949 21.8618 50.2735C22.3993 50.4944 22.9369 50.6995 23.4546 50.9204C24.5099 51.3779 25.824 50.9204 26.8195 51.5672C27.6358 50.952 28.6513 51.0939 29.607 51.1886C30.702 51.299 31.4985 50.9835 32.1356 50.3209C32.4143 50.0369 32.7329 50.1473 33.0316 50.3367C33.4696 50.6206 33.9275 50.6206 34.3457 50.3367C34.724 50.1 35.0425 49.8002 35.4407 49.5794C35.4806 49.5636 35.5005 49.5478 35.5204 49.532C35.5204 49.5636 35.5403 49.6267 35.6996 49.674C35.7792 49.7056 35.8589 49.8634 35.819 49.9107C35.6 50.3209 35.3412 50.7311 35.1023 51.1413C34.7439 51.3464 34.3258 51.5357 34.0271 51.7881C33.3302 52.3561 33.6488 53.0818 33.7683 53.7129C33.8479 54.0915 34.5647 53.9969 35.0226 54.0758C35.3611 54.1231 35.6797 54.2808 35.9783 54.4386C36.1774 54.5333 36.4164 54.7226 36.4164 54.8646C36.4164 55.2117 36.0182 55.1959 35.6797 55.2117C35.2018 55.2117 34.6244 55.2275 34.485 55.6534C34.3457 56.0478 34.0669 56.3318 33.7284 56.6C33.3501 56.8998 32.9121 56.9629 32.3944 56.9313C31.8369 56.8998 31.5383 56.7105 31.4387 56.2529C31.3591 55.9059 31.0405 55.8743 30.7219 56.111C30.4631 56.3161 30.2242 56.5527 29.9255 56.6947C29.6468 56.8209 29.2486 56.9156 28.9499 56.8525C28.5517 56.7736 28.253 56.2845 27.7553 56.6947C27.3571 57.026 26.5208 56.8525 26.3416 57.4678C26.3018 57.6413 26.1226 57.7991 26.0032 57.9568C25.8439 57.7202 25.6846 57.4993 25.5452 57.2627C25.366 57.0102 25.1072 56.9787 25.0474 57.2153C24.8284 58.1462 23.9524 58.1777 23.136 58.0199C20.3486 57.452 20.3486 57.4204 18.019 57.9568C17.0633 58.1777 16.1275 58.2408 15.2515 57.736C14.694 57.4046 14.017 57.4204 13.5591 57.6571C12.902 57.9884 12.245 58.0673 11.5282 58.1304C11.0503 58.1619 10.8114 58.651 11.1499 59.0139C11.6676 59.5976 11.787 60.4811 12.9618 60.6073C13.798 61.4277 14.913 61.617 16.1873 61.5697C17.5213 61.5224 18.8752 61.4435 20.2092 61.5697C21.6029 61.7117 22.5985 60.6862 24.032 60.9229C25.0674 61.0964 25.4457 59.7554 26.481 59.9132C27.4964 60.0709 28.4123 60.7651 29.4676 60.0394C29.6667 59.8974 29.8061 59.992 30.0649 60.1183C31.0803 60.56 32.1157 60.5127 33.151 60.0709C33.7085 59.8343 33.609 60.276 33.7483 60.4969C33.8479 60.6547 34.0868 60.9544 34.1267 60.9386C35.0226 60.6547 36.2571 60.8124 36.6951 59.8658C37.7703 59.85 38.8454 59.8343 39.9206 59.8027C40.6175 59.7869 41.0754 59.992 41.1352 60.5916C42.1108 61.0964 43.1262 61.8853 44.3009 61.4277C45.2566 61.0491 46.1327 61.0491 47.0884 61.0175C47.9246 60.986 48.9003 61.128 49.5573 60.8282C50.732 60.2918 51.9466 60.3549 53.0616 60.4653C54.2164 60.5758 55.1721 59.6923 56.4264 60.3234C57.0437 60.6231 58.079 60.4338 58.9153 60.4022C59.9108 60.3549 60.5678 61.1911 61.5833 60.9702C61.643 60.7493 61.7027 60.5127 62.1009 60.5916C62.2204 60.6231 62.2801 60.8282 62.3598 60.9702C62.5589 61.0333 62.7978 61.0806 62.9372 61.2069C63.435 61.6171 63.9526 61.6802 64.5101 61.2857C64.8685 61.0333 65.2269 60.7809 65.6052 60.5127C66.2622 61.128 66.8197 60.5758 67.437 60.4496C68.094 60.3234 69.1094 61.2857 68.8506 61.7748C68.771 61.9168 68.5121 62.0746 68.313 62.0904C67.9546 62.1377 67.4569 62.185 67.2578 62.043C66.5211 61.5224 66.0034 61.6959 65.5056 62.2323C65.1672 62.5952 64.7889 62.6741 64.3508 62.327C64.0522 62.0904 63.6938 62.1219 63.3752 62.2639C62.8974 62.4848 63.196 63.2578 62.3 63.2578C61.7027 63.2421 61.0855 63.2894 60.4882 63.3052C60.3687 63.3052 60.2493 63.3052 60.1497 63.3052C59.5524 64.0151 59.2537 64.0151 58.6962 63.3052C58.4573 63.2894 58.2184 63.2736 57.9596 63.2578C57.7206 62.6899 57.3025 62.2639 56.4862 62.1535C56.4264 62.4217 56.2074 62.611 55.8689 62.6741C55.5106 62.7372 55.1323 62.6741 54.7938 62.753C54.6146 62.7845 54.4155 62.9896 54.3557 63.1474C54.2363 63.4472 54.4553 63.7154 54.8137 63.7942C55.1522 63.8731 55.5504 63.81 55.8889 63.8731C56.0481 63.9047 56.1875 64.0782 56.3269 64.1887C55.8092 64.5673 55.9088 65.3404 55.1323 65.5139C54.7141 65.6086 54.1168 65.5455 53.7584 65.3561C52.8226 64.8671 52.066 64.9302 51.1302 65.3877C49.9157 65.9872 48.5618 66.3185 47.0486 66.1765C45.9734 66.0819 44.739 66.3974 43.8231 66.0819C42.6484 65.6875 41.5931 65.3877 40.4383 65.8768C39.4029 66.3027 38.0689 66.2081 37.2924 67.0758C37.1531 67.2336 36.5159 67.3282 36.3367 67.2178C35.7593 66.8549 35.3412 66.8865 34.8633 67.3125C34.3457 67.7858 33.8081 67.9278 32.9718 67.6122C31.7573 67.1705 30.4432 67.0916 29.2087 67.6753C28.5119 68.0066 27.815 67.9435 27.1978 67.5807C26.7996 67.344 26.6204 67.5649 26.3018 67.6596C25.8837 67.7858 25.4257 67.8331 24.9678 67.912C24.6492 68.7166 23.4944 69.111 23.2754 69.9945C23.2555 70.1049 22.6184 70.2154 22.3197 70.1681C21.8618 70.1049 21.4636 69.8525 21.0056 69.7579C20.1893 69.5843 19.2933 69.3634 18.5765 69.8052C17.6606 70.3574 16.8841 70.3258 15.9284 69.8525C15.4506 69.6159 15.4506 70.0734 15.4307 70.3101C15.4108 70.7834 15.351 71.2724 16.2271 71.3671C16.685 71.4144 17.143 71.5406 17.581 71.6826C18.7756 72.1086 20.1495 71.9035 21.3242 72.4872C21.7622 72.7081 22.5188 72.503 23.1161 72.5346C23.6537 72.5504 24.0519 72.4241 24.3904 72.0928C24.8683 71.6195 25.3859 71.304 26.1027 71.8404C26.7398 71.5722 27.377 71.3355 27.9942 71.0358C28.2331 70.9096 28.3327 70.9411 28.5915 71.0831C28.9698 71.2882 29.4477 71.3986 29.8857 71.5722C31.0604 72.0455 32.1555 72.7081 33.4099 72.9605C34.724 73.2288 35.6797 72.0455 36.9938 71.9351C37.3322 71.9035 37.6906 71.8246 38.0092 71.6984C38.5269 71.4933 39.2636 71.3513 39.4826 71.0042C39.8211 70.4836 39.9007 70.4363 40.6772 70.6098C42.5687 71.02 42.9072 70.8938 46.4712 69.8052C46.9888 69.6474 47.3672 69.6632 47.7654 69.9472C48.1636 70.2312 48.6215 70.2943 49.0396 69.9787C49.5175 69.6159 50.1148 69.5212 50.732 69.6001C51.5683 69.7263 52.1457 69.4108 52.5837 68.9217C53.1412 68.3222 53.5195 68.7955 54.0372 68.9532C54.4951 69.0952 54.9332 68.9217 55.0327 68.4799C55.7296 68.4799 56.4862 68.2591 57.0835 68.7008C57.7007 69.1583 58.4573 69.0164 59.1741 69.0164C59.7117 69.0164 60.09 68.8586 60.1895 68.3853C60.2294 68.2275 60.4285 67.9435 60.5678 67.9435C61.7824 67.9278 62.977 67.9435 64.1915 67.9593C64.988 68.8428 65.6052 67.8173 66.3419 67.8331C66.6206 67.8331 66.7202 67.5333 66.5211 67.4545C65.7844 67.1547 65.0079 66.9023 64.2513 66.6183C64.1517 66.5867 64.0721 66.4921 63.9725 66.429C64.0522 66.3659 64.1119 66.2712 64.1915 66.2554C65.5056 66.0188 66.8596 65.7821 67.9148 66.7287C68.5918 67.3282 69.3882 67.2967 70.2443 67.2651C70.3638 67.2651 70.5032 67.2809 70.6027 67.2494C70.7222 67.2336 70.9014 67.1547 70.9014 67.1231C70.8815 66.9811 70.8616 66.8076 70.7421 66.6972C70.5231 66.4605 70.2643 66.2554 70.0054 66.0503C69.7267 65.8452 69.7665 65.719 70.1249 65.6401C71.2399 65.4193 72.2553 65.5928 73.2309 66.0819C73.3703 66.145 73.669 66.003 73.888 65.9557C73.8282 65.7979 73.8282 65.5928 73.6889 65.4981C73.43 65.2773 73.43 65.1668 73.7486 65.0879C74.107 65.0091 74.4056 65.0406 74.764 65.1826C75.7197 65.577 75.7596 65.5455 76.337 64.8828C76.556 64.6304 76.7551 64.4095 77.1533 64.4569C77.3723 64.4884 77.5714 64.6146 77.7904 64.6777C79.3036 65.0564 80.8368 65.2457 82.3101 64.5673C82.6685 64.4095 83.0866 64.2833 83.3057 64.4726C84.0224 65.1037 85.1972 64.804 85.9338 65.3246C86.3719 65.6401 86.8298 65.5297 87.228 65.2615C87.7855 64.8828 88.3231 64.4884 88.8408 64.0782C89.2788 63.7311 89.4978 64.1098 89.6969 64.2675C90.4734 64.8986 90.4336 65.151 89.5177 65.5455C88.8408 65.8294 88.801 65.9241 89.2788 66.2712C89.5177 66.4447 89.7368 66.7445 90.1748 66.4447C90.8916 65.9399 91.3495 65.0248 92.4048 65.0564C93.9379 65.0879 95.471 64.7093 97.0439 65.3246C98.3381 65.8294 99.8712 65.8294 101.046 64.804C101.265 64.6146 101.663 64.4253 101.982 64.4253C103.316 64.3938 104.65 64.4253 105.984 64.4411C106.581 65.1826 107.298 64.2833 107.776 64.4726C108.911 64.9302 109.807 64.5989 110.663 64.1413C111.26 63.8258 111.678 63.7942 112.275 64.094C112.654 64.2833 113.171 64.3149 113.649 64.3622C114.267 64.4253 114.446 64.7093 114.426 65.1353C114.426 65.3246 114.406 65.5297 114.446 65.719C114.505 65.9872 114.625 66.2554 114.724 66.5236C115.282 66.3343 115.123 65.9399 115.143 65.5928C115.162 65.4035 115.103 65.1984 115.163 65.0091C115.202 64.8355 115.302 64.6304 115.461 64.5358C115.62 64.4411 115.919 64.3938 116.138 64.4253C116.477 64.4726 116.516 64.6462 116.337 64.8197C116.198 64.9775 115.999 65.1353 115.959 65.3088C115.879 65.577 115.899 65.9083 116.297 66.0503C116.795 66.2239 117.831 66.0976 118.03 65.8768C118.308 65.5612 118.03 65.9872 117.831 65.6401C117.691 65.4035 117.353 65.2141 117.731 64.9459C118.746 64.2044 119.881 63.7785 121.315 63.8258C122.012 63.8573 122.47 63.952 122.549 64.5831C122.589 64.8513 122.828 64.8828 123.067 64.7251C123.266 64.6146 123.565 64.3938 123.664 64.4411C124.54 64.8355 125.815 64.6304 126.253 65.7032C126.472 66.2396 127.129 66.1923 127.547 65.6086C127.806 65.2615 127.865 64.8197 128.323 65.4666C128.463 65.6717 128.363 66.1608 128.941 65.8294C129.618 65.4508 130.613 65.4666 131.031 64.7882C131.19 64.5358 131.23 64.1413 131.489 64.0467C132.027 63.8258 132.266 64.3149 132.584 64.5358C132.982 64.804 133.42 64.9775 133.918 64.9144C135.153 64.7251 136.327 63.9836 137.622 64.7724C138.677 64.0467 139.951 64.3622 141.126 64.3622C142.44 64.3622 143.834 64.1256 144.988 64.8986C146.064 64.804 147.159 65.1195 148.194 64.6462C148.493 64.5042 148.871 64.4253 149.21 64.4095C150.424 64.3622 151.678 64.236 152.873 64.378C154.287 64.5358 155.442 63.9205 156.736 63.8258C157.711 63.7627 158.687 63.7942 159.663 63.7942C160.519 63.7942 161.375 63.7627 162.231 63.7785C163.207 63.7785 164.322 63.5891 165.138 63.8889C166.094 64.236 166.85 64.3307 167.746 63.9678C169.797 64.9459 171.728 64.0782 173.58 63.5734C175.392 63.0843 177.124 63.1001 178.876 63.5103C179.474 63.6523 180.011 63.7785 180.628 63.7785C181.365 63.7942 182.321 63.5734 182.779 63.8731C183.695 64.4569 184.312 63.7785 185.068 63.7942C185.307 63.7942 185.566 63.7627 185.805 63.8258C188.274 64.3938 188.274 64.4253 190.962 63.9362C191.977 64.5989 192.933 63.4156 193.909 63.8731C194.466 64.1256 194.864 64.0467 195.482 63.9678C197.134 63.7469 198.807 63.6207 200.479 64.1729C201.714 64.5831 203.167 64.5831 204.382 64.1729C205.218 63.8731 206.014 63.8258 206.831 63.8416C208.503 63.8731 210.235 63.4629 211.788 64.3149C211.868 64.3622 212.067 64.3622 212.147 64.3149C213.282 63.5103 214.855 64.1413 215.95 63.6838C217.264 63.1316 218.558 63.2894 219.852 63.2421C221.186 63.1947 222.54 63.2421 223.894 63.2578C224.71 64.1729 225.845 63.3052 226.781 63.5891C227.956 63.9362 229.17 63.7469 230.365 63.8416C230.843 63.8889 231.321 63.9362 231.759 64.0782C232.814 64.4569 233.829 64.5042 234.885 64.0625C235.94 63.6049 237.314 63.9993 238.289 63.2578C238.468 63.1158 239.125 63.1474 239.344 63.3052C240.3 63.9678 241.415 63.7154 242.49 63.7942C244.282 63.9362 246.154 63.4629 247.826 64.3307C249.877 64.3307 251.948 64.6935 253.899 63.8416C254.974 64.0151 255.193 63.2263 255.731 62.8003C256.567 63.3367 257.622 63.3367 258.538 63.2105C260.071 63.0212 261.306 63.7785 262.759 63.7785C265.208 63.7627 267.637 63.7785 270.086 63.81C270.743 63.81 271.261 63.668 271.699 63.2736C272.097 62.895 272.734 62.7845 273.212 62.5321C274.049 62.0746 274.606 62.0588 275.482 62.469C276.239 62.8161 277.135 62.6899 277.712 62.0272C278.309 61.3646 279.225 61.27 280.002 61.5066C281.236 61.901 282.53 61.9799 283.765 62.2481C286.174 62.7845 287.369 62.8003 290.077 62.185C290.435 62.1061 290.753 62.043 291.092 62.2323C292.406 63.0212 293.939 62.4532 295.353 62.5952C296.07 62.6583 296.766 62.6583 297.423 62.2323C297.921 61.901 298.837 61.8695 299.056 62.2639C299.653 63.4156 300.569 63.3683 301.605 62.8476C302.122 62.5952 302.222 62.9423 302.501 63.037C303.098 63.2421 303.715 63.3052 304.213 62.9896C304.591 62.753 303.476 62.4059 304.153 62.1377C304.551 61.9799 305.228 62.1377 305.527 61.9326C306.642 61.1911 307.657 60.3391 308.713 59.5345C308.534 59.1085 308.295 58.6983 308.195 58.2566C308.056 57.7202 308.593 57.31 309.25 57.4047C310.425 57.5624 311.5 58.0831 312.735 57.9726C312.814 57.9726 312.934 58.0673 313.013 58.1304C313.173 58.2566 313.073 58.4932 312.775 58.4932C311.679 58.4617 312.058 59.6607 311.142 59.7238C311.122 59.992 311.122 60.276 311.042 60.5285C310.963 60.7967 310.783 60.7967 310.525 60.6704C310.266 60.5442 309.947 60.2287 309.668 60.6389C309.39 61.0491 309.131 61.4751 308.952 61.9168C308.832 62.2166 309.071 62.5163 309.43 62.5794C310.126 62.6899 310.863 62.6741 311.58 62.7845C312.038 62.8476 312.456 63.0685 312.914 63.1474C313.432 63.2578 313.969 62.9896 314.009 62.6425C314.049 62.1535 314.049 61.6802 314.069 61.1911C314.089 60.6073 313.71 60.3391 313.013 60.2445C312.695 60.1971 312.635 59.9605 312.834 59.8658C313.332 59.6134 314.009 59.4872 314.328 59.1401C314.965 58.4617 315.462 58.8877 316.08 59.0928C316.458 59.2348 316.757 59.0139 316.697 58.6983C316.657 58.4775 316.06 58.3039 316.617 58.0042C318.051 57.1996 319.902 57.594 321.396 56.884C321.635 56.7578 322.272 57.2311 322.63 57.1522C323.307 56.9945 323.924 56.6631 324.522 56.3476C325.179 56.0163 325.159 55.2275 324.462 54.8804C323.407 54.6122 322.531 54.0758 321.396 54.0758ZM302.122 38.3936C302.122 38.3779 302.142 38.3621 302.162 38.3305L302.222 38.3779C302.182 38.3936 302.142 38.3936 302.122 38.3936C302.063 38.5199 301.983 38.6461 301.903 38.7723C301.883 38.7881 301.684 38.7723 301.684 38.7565C301.605 38.441 301.844 38.4094 302.122 38.3936ZM299.574 22.8062C299.614 22.7904 299.713 22.8535 299.773 22.8851C299.773 22.9482 299.753 22.9955 299.753 23.0586C299.614 23.0271 299.474 22.9797 299.335 22.9482C299.415 22.9008 299.474 22.8377 299.574 22.8062ZM287.946 21.055C288.026 21.1023 288.085 21.1654 288.165 21.2127C288.085 21.2601 288.006 21.3074 287.926 21.3547C287.847 21.3232 287.787 21.3074 287.707 21.2758C287.787 21.2127 287.866 21.1339 287.946 21.055ZM287.488 23.2322C287.508 23.2322 287.508 23.2322 287.528 23.2322C287.528 23.2322 287.528 23.2479 287.548 23.2637C287.906 23.2637 288.245 23.2479 288.603 23.2637C289.599 23.3268 290.196 22.4275 291.311 22.6326C292.127 22.7904 293.003 22.68 293.859 22.6957C294.835 22.6957 295.811 22.68 296.766 22.6957C297.702 22.7115 298.061 23.3268 297.662 24.1157C297.623 24.1945 297.503 24.2577 297.423 24.3208C297.344 24.2577 297.185 24.1945 297.165 24.1157C297.045 23.6108 296.786 23.2322 296.01 23.2953C295.532 23.3268 294.994 23.2006 294.576 23.3268C294.039 23.4846 293.601 23.8317 292.924 23.8159C291.231 23.7528 289.539 23.7528 287.847 23.6897C287.747 23.6897 287.647 23.4373 287.548 23.2795C287.528 23.2795 287.528 23.2795 287.508 23.2795C287.488 23.2479 287.488 23.2479 287.488 23.2322C287.15 23.2322 286.811 23.2322 286.473 23.2164C286.373 23.2164 286.214 23.0428 286.234 23.0271C286.333 22.9008 286.453 22.7273 286.612 22.6957C287.13 22.6169 287.468 22.7746 287.488 23.2322ZM286.094 20.3923C286.274 20.4712 286.433 20.5659 286.612 20.6448C286.274 20.8656 285.915 21.1023 285.557 21.3074C285.557 21.3074 285.358 21.1812 285.338 21.1023C285.298 21.0076 285.298 20.8972 285.318 20.8183C285.398 20.5659 285.696 20.3923 286.094 20.3923ZM272.993 17.4736C273.292 17.4894 273.431 17.4579 273.551 17.5052C273.77 17.5683 273.969 17.6787 274.168 17.7576C273.969 17.8523 273.77 17.9469 273.551 18.0258C273.451 18.0574 273.292 18.0574 273.192 18.0258C272.854 17.9469 272.535 17.8365 272.217 17.7418C272.535 17.6314 272.834 17.521 272.993 17.4736ZM268.673 17.5999C268.752 17.5999 268.852 17.5683 268.912 17.5999C269.091 17.6945 269.051 17.8207 268.772 17.8996C268.732 17.9154 268.613 17.805 268.573 17.7418C268.553 17.7103 268.633 17.6472 268.673 17.5999ZM267.896 12.4251C267.976 12.3304 268.195 12.2989 268.374 12.2515C268.374 12.2358 268.394 12.2042 268.394 12.1884L268.454 12.2358C268.434 12.2515 268.394 12.2515 268.374 12.2515C268.314 12.3935 268.274 12.5513 268.155 12.6144C267.956 12.7091 267.777 12.5671 267.896 12.4251ZM264.91 17.1423C264.91 17.1266 267.458 17.5841 267.458 17.5999C267.478 17.663 267.518 17.7261 267.518 17.805C267.498 18.0732 266.502 18.5938 266.104 18.5465C265.507 18.4834 264.87 17.9312 264.81 17.4105C264.79 17.3159 264.87 17.2212 264.91 17.1423ZM263.735 17.5525C263.815 17.6156 263.874 17.663 263.954 17.7261C263.874 17.7734 263.795 17.8207 263.715 17.8681C263.635 17.8365 263.556 17.805 263.496 17.7892C263.556 17.7103 263.655 17.6314 263.735 17.5525ZM47.8649 13.2297C47.7255 13.1508 47.6857 12.9457 47.6061 12.7879C47.6061 12.7879 47.6061 12.7879 47.5862 12.7879C47.2477 12.7722 46.8893 12.7722 46.5508 12.7406C46.4513 12.7248 46.3119 12.5671 46.3119 12.5671C46.4314 12.4408 46.5508 12.2831 46.7101 12.2515C47.2676 12.1411 47.5663 12.3462 47.5862 12.8037C47.5862 12.8037 47.5862 12.8037 47.5862 12.8195C47.7853 12.8826 48.0441 12.9142 48.1238 13.0404C48.2631 13.1666 48.064 13.3243 47.8649 13.2297ZM28.2331 14.6969C28.3526 14.76 28.3924 14.9178 28.4521 15.0598C28.492 15.0598 28.5119 15.0756 28.5517 15.0756L28.492 15.1229C28.4721 15.1071 28.4721 15.0756 28.4721 15.044C28.2929 14.9967 28.0938 14.9809 27.9942 14.8862C27.8349 14.76 28.034 14.6023 28.2331 14.6969ZM30.0848 29.9215C30.264 29.8426 30.4432 29.7164 30.6423 29.7006C31.0803 29.6533 31.4188 29.8742 31.2197 30.0319C31.0803 30.1424 30.8215 30.2213 30.6423 30.1897C30.4432 30.1739 30.264 30.0162 30.0848 29.9215ZM21.5432 19.2564C21.6627 19.3984 21.7622 19.5562 21.8817 19.6982C21.802 19.8559 21.7224 20.0137 21.6427 20.1715C21.5034 20.0926 21.2047 19.9979 21.2246 19.9506C21.3043 19.7139 21.4436 19.4931 21.5432 19.2564ZM18.4571 19.4142C18.6163 19.4457 18.8951 19.4931 18.915 19.5719C18.9747 19.8086 18.9548 20.061 18.9349 20.2977C18.9548 20.2977 18.9747 20.3135 19.0146 20.3135C19.0345 20.345 19.0345 20.3608 19.0544 20.3923C19.3132 20.4081 19.5521 20.4397 19.4924 20.7394C19.4924 20.7552 19.2734 20.7868 19.2734 20.7552C19.1938 20.6448 19.134 20.5028 19.0544 20.3923C19.0146 20.3923 18.9747 20.3923 18.9349 20.3923C18.9349 20.3608 18.9349 20.345 18.9349 20.3135C18.4571 20.2661 18.2181 20.0295 18.2779 19.6193C18.2779 19.5404 18.3973 19.4142 18.4571 19.4142ZM14.9329 19.8717C15.0125 19.9348 15.0922 20.0137 15.1718 20.0768C15.0922 20.1399 14.9926 20.1872 14.913 20.2504C14.8333 20.1872 14.7139 20.1084 14.7139 20.061C14.7139 19.9821 14.8533 19.919 14.9329 19.8717ZM8.42215 35.3014C8.3226 35.2383 8.22305 35.1752 8.10359 35.1278C8.18323 35.0805 8.26287 34.9859 8.3226 34.9859C8.40224 34.9859 8.46198 35.0963 8.52171 35.1436C8.5018 35.191 8.46198 35.2541 8.42215 35.3014ZM9.19866 32.3985C8.84027 32.7613 8.44206 33.1242 7.78502 33.0611C7.60582 33.0453 7.3669 32.8875 7.30716 32.7613C7.24743 32.6193 7.28725 32.3669 7.40672 32.2565C7.84475 31.8778 8.44206 31.9567 9.01947 32.0356C9.11902 32.0514 9.19866 32.146 9.29822 32.1934C9.2584 32.2565 9.23849 32.3354 9.19866 32.3985ZM9.27831 31.1521C9.17875 31.3414 8.97965 31.3099 8.76063 31.1205C8.30269 30.7419 7.70537 30.8208 7.12797 30.7735C6.94877 30.7577 6.78949 30.5999 6.6103 30.5053C6.8094 30.4264 6.9886 30.3002 7.1877 30.2528C7.40672 30.2055 7.64564 30.237 7.88457 30.237V30.2528C8.22305 30.2528 8.60135 30.2055 8.91992 30.2686C9.09911 30.3002 9.29822 30.4895 9.35795 30.6315C9.43759 30.7892 9.35795 30.9943 9.27831 31.1521ZM9.79598 21.9858C9.69643 21.7491 9.55705 21.5283 9.49732 21.2916C9.49732 21.2601 9.77607 21.1654 9.93535 21.1181C10.015 21.2758 10.1544 21.4336 10.1345 21.5756C10.1145 21.7176 9.91544 21.8438 9.79598 21.9858ZM17.143 34.3075C17.0235 34.4494 16.7846 34.5283 16.6452 34.6545C16.4063 34.8439 16.247 34.8281 16.1474 34.5757C16.1076 34.4968 16.1076 34.4179 16.0877 34.3548C16.0678 34.0077 16.3266 33.8499 16.685 33.8184C16.8841 33.8026 17.1031 33.8815 17.3022 33.913C17.2425 34.0235 17.2425 34.197 17.143 34.3075ZM41.6329 32.2091C41.4537 32.3827 40.8962 32.5562 40.717 32.4616C40.1795 32.2091 39.8211 32.004 39.2038 32.43C38.7459 32.7456 38.0092 32.6824 37.5114 32.3669C37.0137 32.0514 36.7349 32.1934 36.3367 32.4773C35.5204 33.0453 35.4607 33.0611 34.6642 32.4616C33.9873 31.9567 33.7284 32.0672 33.5692 32.7456C33.5293 32.8875 33.2506 33.0769 33.0714 33.0926C32.4741 33.1558 31.8568 33.1242 31.2396 33.1558C29.8061 33.2031 28.3924 33.0926 26.9987 33.6448C26.3018 33.913 25.0076 34.0866 24.7289 32.8875C24.6492 32.5878 24.1316 32.5405 23.7931 32.6351C23.3551 32.7613 22.917 32.9507 22.5387 33.1873C21.6029 33.7868 20.5078 33.7237 19.4128 33.7553C18.696 33.7868 18.3376 33.5186 18.1584 32.9507C18.0589 32.6036 17.7403 32.3196 17.5014 32.004C15.8289 31.9883 14.1365 31.6727 12.5635 32.4773C12.2052 32.6667 11.6277 32.3354 11.6477 31.8621C11.6676 31.1679 11.3689 30.7892 10.4928 30.7104C10.3933 30.6946 10.3336 30.5841 10.2539 30.521C10.3535 30.4579 10.453 30.3633 10.5526 30.3633C11.0304 30.3475 11.5083 30.2844 11.9662 30.3633C12.4839 30.4421 15.132 30.4264 15.7094 30.3159C16.1674 30.237 16.685 30.1897 17.143 30.2528C17.6805 30.3159 18.2181 30.5999 18.7557 30.6157C19.1938 30.6315 19.6318 30.379 20.0698 30.2528C20.1694 30.2213 20.3287 30.237 20.4282 30.2686C20.6472 30.3475 20.9658 30.4106 21.0056 30.5368C21.1251 30.7892 21.1649 31.1205 20.7866 31.2941C20.4879 31.4361 20.1295 31.4992 19.8309 31.6727C19.6119 31.7989 19.7313 32.3985 19.9902 32.4142C20.707 32.4458 21.4237 32.5247 22.1405 32.4773C22.5188 32.4458 22.5985 32.0987 22.5785 31.7989C22.5586 31.4834 21.6427 31.2783 22.3197 30.8997C22.5586 30.7735 22.9768 30.8523 23.3351 30.8523C23.3351 30.8366 23.3351 30.8208 23.3351 30.805C23.3551 30.805 23.375 30.805 23.4148 30.805C23.4944 30.6315 23.5542 30.3948 23.6338 30.379C24.47 30.3002 25.3063 30.2213 26.1425 30.2528C26.919 30.2844 27.5562 30.1739 28.1535 29.7795C28.4123 29.606 29.149 29.8111 29.0694 29.9373C28.9698 30.1108 28.7707 30.237 28.6114 30.3948C28.273 30.7104 27.8747 30.8366 27.3372 30.8208C26.0231 30.805 24.709 30.805 23.3949 30.805C23.3949 30.8208 23.375 30.8366 23.375 30.8523C23.3551 30.8523 23.3351 30.8523 23.3152 30.8523C23.3351 31.1363 23.2754 31.4361 23.4148 31.6727C23.6537 32.0829 24.2112 32.0198 24.6891 32.004C25.0474 32.004 25.5452 32.0829 25.7642 31.9409C26.7 31.3099 27.815 31.4519 28.8902 31.4203C29.9653 31.3888 31.1202 31.5781 31.9763 30.8366C33.6687 30.8839 35.381 30.8839 37.0535 31.0417C37.5114 31.089 37.8101 31.1048 38.288 31.0259C39.4627 30.8523 40.6971 30.8839 41.8918 30.8523C42.0112 30.8523 42.2501 31.1205 42.2103 31.1994C42.0709 31.5465 41.9316 31.9252 41.6329 32.2091ZM44.4204 31.2152C44.0023 31.2783 43.9824 31.0732 43.9624 30.8681C43.9425 30.8681 43.9226 30.8523 43.9027 30.8366C43.8828 30.8208 43.8828 30.7892 43.8828 30.7735C43.7036 30.7261 43.4846 30.7104 43.385 30.5999C43.2457 30.4579 43.4448 30.3002 43.6638 30.3948C43.7833 30.4579 43.8231 30.6315 43.8828 30.7735C43.9027 30.7735 43.9425 30.7892 43.9624 30.7892C43.9624 30.8208 43.9625 30.8366 43.9824 30.8681C44.1416 30.9155 44.3208 30.9628 44.4801 31.0417C44.4801 31.0417 44.4403 31.1994 44.4204 31.2152ZM28.034 43.9944C27.9146 43.9313 27.8747 43.7735 27.8349 43.6473C27.7951 43.6473 27.7752 43.6315 27.7354 43.6315L27.7951 43.5842C27.815 43.6 27.815 43.6315 27.815 43.6631C27.9942 43.7104 28.1933 43.742 28.273 43.8209C28.4123 43.9628 28.2331 44.1048 28.034 43.9944ZM32.4343 43.9628C32.3347 43.9471 32.2152 43.6789 32.2351 43.5369C32.2551 43.3949 32.4343 43.2687 32.5537 43.1424C32.6533 43.2687 32.8126 43.3949 32.8524 43.5211C32.8723 43.742 32.8524 44.0259 32.4343 43.9628ZM35.4009 51.583C35.2815 51.5199 35.2416 51.3464 35.1819 51.2044C35.162 51.2044 35.1222 51.1886 35.1023 51.1886L35.162 51.1413C35.1819 51.157 35.1819 51.1886 35.1819 51.2044C35.3611 51.2517 35.5801 51.2833 35.6598 51.3779C35.7792 51.5357 35.6 51.6777 35.4009 51.583ZM36.5358 59.9132C36.5159 59.8816 36.5159 59.8658 36.496 59.8343C36.2571 59.8027 35.9783 59.8027 36.058 59.4714C36.058 59.4556 36.277 59.4399 36.2969 59.4556C36.3765 59.5661 36.4363 59.6923 36.496 59.8185C36.5358 59.8185 36.5756 59.8343 36.6155 59.8343L36.5358 59.9132ZM37.5712 50.9677C37.4915 50.81 37.3522 50.6522 37.3721 50.5102C37.392 50.3682 37.5911 50.242 37.7703 50.0527C37.8698 50.3367 37.9694 50.5575 37.9893 50.7942C37.9893 50.8415 37.7105 50.9046 37.5712 50.9677ZM42.051 54.5491C41.9714 54.4859 41.8918 54.4228 41.8121 54.344C41.8918 54.2808 41.9913 54.1704 42.071 54.1704C42.1705 54.1704 42.2302 54.2966 42.3099 54.3597C42.2302 54.4228 42.1506 54.4859 42.051 54.5491ZM46.4712 37.6837C46.3915 37.6206 46.3119 37.5575 46.2323 37.4944C46.3119 37.4313 46.4114 37.3366 46.4911 37.3366C46.5906 37.3366 46.6703 37.447 46.7499 37.5101C46.6504 37.5732 46.5707 37.6206 46.4712 37.6837ZM57.5016 33.6133C57.422 33.5975 57.3423 33.5028 57.2627 33.4397C57.3423 33.3766 57.4419 33.3135 57.5215 33.2504C57.6012 33.3135 57.6808 33.3924 57.7604 33.4555C57.6609 33.5028 57.5813 33.6133 57.5016 33.6133ZM60.5678 32.9191C60.4882 33.0138 60.309 33.0453 60.1298 33.0769C60.1298 33.1084 60.1099 33.14 60.1099 33.1558C60.0701 33.1558 60.0303 33.1558 59.9904 33.1558C59.9108 33.282 59.8511 33.4082 59.7714 33.5344C59.7515 33.5502 59.5325 33.5186 59.5325 33.5028C59.4927 33.2031 59.7316 33.1715 59.9904 33.1715C60.0103 33.1558 60.0103 33.1242 60.0303 33.1084C60.0701 33.0926 60.1099 33.0926 60.1298 33.0769C60.1696 32.9507 60.2094 32.8087 60.309 32.7456C60.5081 32.6509 60.6873 32.7771 60.5678 32.9191ZM65.5853 32.5405C65.4061 32.6667 65.2269 32.7929 65.0278 32.9191C64.8088 33.0611 64.5898 32.998 64.53 32.7298C64.4305 32.3038 64.769 32.004 65.3065 32.004C65.4061 32.0356 65.5256 32.0514 65.6251 32.0987C65.8441 32.2091 65.8242 32.3669 65.5853 32.5405ZM55.1721 68.1171C55.0725 68.2591 55.0128 68.4168 54.9332 68.5588C54.9531 68.5588 54.9531 68.5746 54.973 68.5746L54.8933 68.6219C54.9132 68.6062 54.9132 68.5746 54.9332 68.5588C54.1168 68.2275 53.2806 67.912 52.3448 67.8962C52.2452 67.8962 52.1656 67.7858 52.066 67.7227C52.1656 67.6596 52.2452 67.5491 52.3448 67.5491C53.3005 67.5176 54.2562 67.4229 55.192 67.5176C55.7495 67.5649 55.3115 67.8962 55.1721 68.1171ZM57.3224 63.5891C57.4021 63.4945 57.6211 63.4629 57.8003 63.4156C57.8003 63.384 57.8202 63.3683 57.8202 63.3367L57.8799 63.384C57.86 63.3998 57.8202 63.3998 57.7804 63.3998C57.7206 63.5418 57.6808 63.6996 57.5613 63.7627C57.3821 63.8889 57.203 63.7311 57.3224 63.5891ZM59.1542 67.1705C58.6564 67.4229 58.1188 67.5964 57.5414 67.8331C57.4419 67.77 57.183 67.6753 57.183 67.5807C57.1631 66.9969 57.1631 66.429 56.5658 65.9872C56.745 65.9083 56.9839 65.719 57.0835 65.7506C57.8202 66.0188 58.537 66.3185 59.2338 66.6656C59.3334 66.6972 59.2737 67.1074 59.1542 67.1705ZM73.669 60.9229C72.773 61.0806 72.096 61.7906 71.0607 61.6013C71.0607 61.6171 71.0806 61.6171 71.0806 61.6328C71.0607 61.6486 71.0209 61.6486 71.0009 61.6486C70.9412 61.7906 70.9014 61.9484 70.7819 62.0115C70.5828 62.1061 70.4036 61.9641 70.5231 61.8221C70.6027 61.7275 70.8217 61.6959 70.981 61.6486C70.981 61.6328 71.0009 61.6013 71.0009 61.5855C71.0209 61.5855 71.0209 61.5855 71.0408 61.5855C70.9412 61.1595 70.5231 61.0649 70.0452 60.986C69.7466 60.9229 69.6669 60.6862 69.8661 60.6073C70.6027 60.3391 71.3394 60.0394 72.1159 59.8658C72.7531 59.7238 73.2309 60.0867 73.6092 60.4653C73.8681 60.6704 73.9079 60.8755 73.669 60.9229ZM73.7287 7.40806C73.5495 7.5185 73.3504 7.36073 73.4698 7.20296C73.5495 7.1083 73.7685 7.07675 73.9477 7.02942C73.9477 7.01364 73.9676 6.98208 73.9676 6.96631C73.9875 6.96631 74.0074 6.96631 74.0274 6.96631C74.0672 6.54034 74.4256 6.4299 74.9233 6.46145C75.0229 6.47723 75.2021 6.55611 75.1822 6.58767C75.1423 6.71388 75.0826 6.9032 74.9831 6.91898C74.6645 6.96631 74.3459 6.95053 74.0274 6.96631C74.0274 6.98208 74.0074 6.99786 74.0074 7.01364C73.9875 7.02942 73.9477 7.02942 73.9278 7.02942C73.888 7.15563 73.8681 7.32917 73.7287 7.40806ZM75.7795 31.8621C75.5605 31.9094 75.3215 31.9252 74.9233 31.9567C74.7242 31.8936 74.4056 31.7832 74.0871 31.6727C74.4256 31.5938 74.7441 31.4834 75.0826 31.4361C75.3016 31.4045 75.5405 31.4519 75.7795 31.4992C75.879 31.515 75.9587 31.6254 76.0582 31.6885C75.9786 31.7516 75.879 31.8463 75.7795 31.8621ZM79.2439 6.60344C78.6665 7.06097 77.9696 7.07675 77.2728 6.82432C77.1334 6.77699 77.0936 6.58767 77.0139 6.4299C76.9741 6.4299 76.9343 6.4299 76.8945 6.4299C76.8945 6.39834 76.8745 6.38257 76.8546 6.35101C76.5958 6.35101 76.3569 6.31946 76.4166 6.00392C76.4166 5.98815 76.6356 5.95659 76.6555 5.97237C76.7352 6.09859 76.7949 6.2248 76.8546 6.35101C76.8945 6.35101 76.9343 6.35101 76.9741 6.35101C76.994 6.36679 76.994 6.39834 77.0139 6.41412C77.7307 6.47723 78.3081 6.20902 78.8656 5.87771C79.005 5.79883 79.4032 5.86193 79.5227 5.95659C79.8611 6.27213 79.443 6.44567 79.2439 6.60344ZM80.996 6.85587C80.9363 6.82432 80.8766 6.80854 80.7969 6.77699C80.8766 6.6981 80.9363 6.60344 81.0159 6.52456C81.0757 6.58767 81.1951 6.65077 81.1951 6.6981C81.1951 6.76121 81.0757 6.80854 80.996 6.85587ZM84.0224 6.80854C83.9627 6.84009 83.9229 6.87165 83.903 6.87165C83.5645 6.72966 83.5844 6.60344 83.9229 6.50878C84.0025 6.57189 84.0822 6.635 84.1817 6.6981C84.122 6.71388 84.0822 6.76121 84.0224 6.80854ZM88.4426 6.16169C88.3629 6.2248 88.2634 6.31946 88.1638 6.31946C87.6262 6.35101 87.0687 6.36679 86.5113 6.36679C86.5113 6.38257 86.4913 6.39834 86.4913 6.41412C86.4714 6.41412 86.4515 6.41412 86.4316 6.41412C86.4117 6.87165 86.0334 6.99786 85.5356 6.93475C85.456 6.91898 85.3963 6.87165 85.3365 6.80854C85.2768 6.74543 85.2171 6.68233 85.1573 6.61922C85.1972 6.58767 85.237 6.55611 85.2967 6.50878C85.3365 6.47723 85.3963 6.44567 85.4361 6.44567C85.7746 6.41412 86.0931 6.41412 86.4316 6.39834C86.4316 6.38257 86.4316 6.36679 86.4316 6.35101C86.4515 6.35101 86.4714 6.35101 86.4913 6.35101C86.5511 5.92504 86.9095 5.78305 87.4072 5.83038C87.7457 5.86193 88.0643 5.92504 88.3828 5.98815C88.4426 6.0197 88.4824 6.14592 88.4426 6.16169ZM122.071 12.078C121.733 11.9675 121.753 11.8256 122.091 11.7467C122.131 11.7309 122.231 11.8571 122.31 11.9202C122.231 11.9833 122.111 12.0938 122.071 12.078ZM129.458 29.5271C129.399 29.464 129.319 29.4009 129.239 29.3535C129.16 29.2904 129.12 29.2273 129.1 29.1642C129.08 29.0065 129.239 28.8487 129.319 28.6751C129.438 28.7856 129.558 28.9118 129.677 29.0222C129.618 29.1642 129.538 29.3062 129.478 29.4482C129.478 29.4798 129.458 29.4955 129.458 29.5271ZM132.684 12.6459C132.624 12.7406 132.544 13.0246 132.325 13.2139C132.206 13.3243 131.887 13.3243 131.668 13.2928C131.33 13.2455 131.33 13.1192 131.489 12.9142C131.728 12.5986 131.887 12.2515 132.106 11.9202C132.166 11.8413 132.266 11.7782 132.345 11.7151C132.465 11.8729 132.604 12.0307 132.684 12.1884C132.724 12.2673 132.684 12.3777 132.684 12.6459ZM144.172 13.1981C144.073 13.135 143.953 13.0877 143.854 13.0246C143.933 12.9773 144.013 12.8826 144.073 12.8826C144.152 12.8826 144.212 12.9773 144.272 13.0404C144.252 13.0877 144.212 13.1508 144.172 13.1981ZM148.791 29.7637C148.771 29.8742 148.533 29.9531 148.393 30.0319C148.373 30.0477 148.194 29.9215 148.174 29.8426C148.134 29.5902 148.154 29.3378 148.134 29.1011C148.114 29.1011 148.095 29.0853 148.075 29.0853C148.055 29.0696 148.055 29.038 148.055 29.0065C147.876 28.9591 147.676 28.9276 147.597 28.8329C147.457 28.6909 147.637 28.5332 147.856 28.6436C147.975 28.7067 148.015 28.8645 148.075 29.0065C148.114 29.0065 148.134 29.0222 148.174 29.0222C148.174 29.038 148.174 29.0696 148.174 29.0853C148.652 29.1327 148.891 29.3535 148.791 29.7637ZM150.524 12.4251C150.563 12.3777 150.922 12.4251 151.041 12.5197C151.3 12.6933 151.499 12.9142 151.718 13.1192C151.599 13.1824 151.519 13.2455 151.4 13.277C150.922 13.4348 150.464 13.277 150.364 12.9142C150.344 12.7564 150.424 12.5513 150.524 12.4251ZM151.878 29.606C151.559 29.6691 151.181 29.6218 150.842 29.6218V29.6375C150.603 29.6375 150.364 29.6849 150.145 29.6218C149.986 29.5744 149.867 29.4324 149.767 29.2904C149.747 29.2589 149.867 29.1327 149.926 29.0538C150.384 28.5489 151.001 28.4069 151.758 28.5174C152.116 28.5805 152.355 28.7067 152.435 29.0222C152.535 29.4324 152.176 29.5429 151.878 29.606ZM154.605 29.0222C154.466 29.0065 154.346 28.8329 154.207 28.7225C154.426 28.6594 154.625 28.5489 154.844 28.5647C155.003 28.5805 155.123 28.754 155.282 28.8645C155.043 28.9118 154.804 29.0222 154.605 29.0222ZM157.293 12.6775C157.253 12.6617 157.233 12.6459 157.194 12.6302C157.154 12.6144 157.134 12.5986 157.094 12.5828C157.174 12.504 157.233 12.4093 157.313 12.3304C157.373 12.3935 157.452 12.4408 157.512 12.504C157.452 12.5671 157.373 12.6144 157.293 12.6775ZM158.448 4.58402C158.249 4.58402 158.03 4.47358 157.831 4.41047C157.97 4.31581 158.11 4.14227 158.269 4.12649C158.468 4.11071 158.667 4.23693 158.906 4.31581C158.727 4.41047 158.587 4.56824 158.448 4.58402ZM164.68 4.20537C164.76 4.2527 164.839 4.31581 164.899 4.36314C164.819 4.41047 164.74 4.4578 164.66 4.50513C164.58 4.47358 164.501 4.4578 164.441 4.42625C164.521 4.36314 164.6 4.28426 164.68 4.20537ZM165.397 13.7503C164.879 13.987 164.282 14.0343 163.804 13.7345C163.645 13.6241 163.565 13.1824 163.704 13.0561C164.103 12.6933 165.098 12.7248 165.576 13.0404C165.616 13.0561 165.616 13.1035 165.636 13.1508C165.636 13.1981 165.656 13.2455 165.656 13.277C165.556 13.4506 165.536 13.6872 165.397 13.7503ZM170.494 5.10465C170.195 5.19931 169.877 5.30975 169.638 5.00999C169.598 4.96266 169.598 4.85222 169.638 4.83644C169.837 4.77334 170.036 4.72601 170.235 4.67868C170.414 4.75756 170.593 4.85222 170.753 4.9311C170.653 4.99421 170.574 5.0731 170.494 5.10465ZM172.405 1.1289C172.007 1.19201 171.649 0.955358 171.848 0.79759C171.967 0.687153 172.226 0.608269 172.405 0.624045C172.505 0.624045 172.584 0.671376 172.664 0.734483C172.744 0.781813 172.823 0.84492 172.923 0.892251C172.744 0.971135 172.584 1.09735 172.405 1.1289ZM177.901 1.57065C177.861 1.60221 177.801 1.61798 177.761 1.63376C177.104 1.8073 176.348 1.68109 175.77 2.10706C175.591 2.24905 174.814 1.79153 174.775 1.5391C174.755 1.47599 174.775 1.34978 174.795 1.334C175.81 1.01846 176.825 1.01846 177.861 1.28667C177.901 1.30245 177.94 1.31822 177.96 1.36555C177.98 1.39711 178.02 1.42866 178.04 1.46021C178 1.50754 177.94 1.5391 177.901 1.57065ZM185.865 5.10465C185.785 5.10465 185.706 4.99421 185.626 4.9311C185.725 4.868 185.805 4.75756 185.905 4.75756C185.984 4.75756 186.064 4.88377 186.144 4.96266C186.044 5.00999 185.944 5.10465 185.865 5.10465ZM193.152 5.71994C192.913 5.76727 192.674 5.78305 192.435 5.78305C192.077 5.78305 191.699 5.76727 191.34 5.7515C191.34 5.76727 191.34 5.76727 191.34 5.78305C190.743 5.73572 190.146 5.73572 189.548 5.64106C189.409 5.62528 189.25 5.3413 189.25 5.18353C189.23 5.04154 189.429 4.88377 189.528 4.74178C190.544 5.5464 191.818 5.15198 192.993 5.23086C193.152 5.24664 193.291 5.43596 193.451 5.5464C193.351 5.60951 193.272 5.70417 193.152 5.71994ZM211.111 6.68233C211.072 6.71388 211.012 6.76121 210.952 6.79276C210.892 6.82432 210.853 6.85587 210.833 6.85587C210.474 6.71388 210.494 6.58767 210.853 6.49301C210.932 6.55611 211.032 6.61922 211.111 6.68233ZM212.764 6.91898C212.565 6.93475 212.206 6.82432 212.206 6.74543C212.147 6.39834 212.545 6.46145 212.804 6.41412C212.983 6.50878 213.142 6.60344 213.321 6.68233C213.122 6.76121 212.943 6.9032 212.764 6.91898ZM216.368 5.19931C216.368 5.21509 216.348 5.23086 216.348 5.24664C216.328 5.26242 216.308 5.26242 216.288 5.27819C216.248 5.73572 216.248 6.17747 216.169 6.61922C216.129 6.9032 215.95 6.88742 215.651 6.6981C214.894 6.2248 214.835 6.08281 215.452 5.64106C215.691 5.48329 215.989 5.38863 216.268 5.26242C216.268 5.23086 216.268 5.21509 216.268 5.18353C216.328 5.19931 216.348 5.19931 216.368 5.19931C216.487 4.47358 217.184 4.67868 217.761 4.6629C217.761 4.64712 217.761 4.63135 217.781 4.61557L217.841 4.6629C217.821 4.6629 217.801 4.6629 217.761 4.6629C217.682 5.45174 216.945 5.19931 216.368 5.19931ZM246.333 7.67626C246.253 7.94447 246.015 8.07068 245.616 8.03913C245.258 8.00758 244.979 7.92869 244.979 7.56583C244.979 7.18718 245.417 6.91898 245.875 7.02942C246.234 7.13985 246.413 7.34495 246.333 7.67626ZM257.881 47.4968C257.861 47.5126 257.642 47.4968 257.642 47.4811C257.563 47.1655 257.821 47.1497 258.06 47.134C258.08 47.1182 258.08 47.0866 258.1 47.0709L258.18 47.134C258.14 47.134 258.1 47.134 258.06 47.1497C258.021 47.2444 257.961 47.3706 257.881 47.4968ZM261.127 59.2663C260.788 59.3136 260.43 59.2821 260.071 59.2821C260.071 59.2663 260.071 59.2505 260.071 59.2348C259.593 59.2348 259.136 59.2505 258.658 59.2348C258.558 59.2348 258.359 59.1085 258.379 59.0928C258.459 58.935 258.538 58.7615 258.678 58.651C259.096 58.3197 259.534 58.0042 260.211 58.3513C260.489 58.509 260.828 58.5879 261.146 58.7299C261.346 58.8088 261.545 58.9192 261.724 59.0139C261.505 59.0928 261.326 59.2348 261.127 59.2663ZM268.135 58.6195C267.777 58.8403 267.398 59.219 267.02 59.2505C265.706 59.3294 264.392 59.2821 263.078 59.2663C262.819 59.2663 262.5 58.793 262.62 58.5879C262.719 58.4301 262.879 58.2093 263.038 58.2093C263.874 58.1777 264.71 58.1935 265.547 58.1935C265.547 58.1619 265.547 58.1304 265.547 58.0988C266.383 58.1462 267.199 58.1777 268.036 58.2408C268.135 58.2408 268.294 58.3355 268.314 58.3986C268.334 58.4617 268.215 58.5721 268.135 58.6195ZM271.082 58.6352C270.803 58.935 270.664 59.3136 270.425 59.6292C270.186 59.9289 269.788 59.8343 269.489 59.7238C269.071 59.5661 269.131 59.219 269.29 58.9981C269.589 58.5879 269.967 58.2093 270.624 58.1777C270.783 58.1935 270.903 58.2093 271.002 58.225C271.341 58.3039 271.301 58.4144 271.082 58.6352ZM282.112 57.4047C281.256 57.9884 280.818 58.7141 280.699 59.5818C280.679 59.6765 280.261 59.8185 280.101 59.7712C278.25 59.2348 276.338 58.793 274.626 58.0042C274.387 57.8937 274.407 57.7517 274.686 57.5782C275.94 56.7578 277.174 56.3792 278.528 56.4107C279.783 56.1898 280.679 57.1996 281.933 57.026C282.232 56.9945 282.331 57.2469 282.112 57.4047Z" fill="#FFA800"/>
</svg>
