<svg width="129" height="111" viewBox="0 0 129 111" fill="none" xmlns="http://www.w3.org/2000/svg">
<path d="M115.614 105.683C115.358 105.501 115.168 105.153 114.844 105.17C114.188 105.199 113.746 104.796 113.084 104.892C112.579 104.957 112.281 104.674 111.769 104.735C111.08 104.811 111.068 104.271 111.549 103.127C111.78 102.583 111.635 102.143 111.218 102.129C111.042 102.128 110.821 102.219 110.703 102.135C109.795 101.524 108.887 100.913 108.027 100.248C107.71 100.005 107.888 99.2289 107.398 99.1278C107.503 98.7602 107.617 98.3809 107.7 98.0152C107.772 97.6947 107.747 97.3052 107.497 97.3929C106.408 97.7682 106.217 96.4996 105.194 96.7809C105.141 96.7964 105.151 96.4316 105.177 96.2198C105.223 95.8629 105.471 95.8801 105.64 95.7882C105.926 95.6202 106.136 95.6628 106.324 95.7789C106.589 95.9325 106.853 96.1028 107.144 96.2211C107.251 96.2615 107.337 96.1107 107.361 95.9155C107.392 95.6537 107.514 95.5108 107.741 95.5132C107.851 95.5203 108.023 95.5717 108.064 95.513C108.257 95.2427 108.1 95.1845 107.998 95.094C107.667 94.7696 107.274 94.5608 107.19 93.9172C107.085 93.099 106.811 92.3726 105.778 92.6823C105.62 92.729 105.495 92.5689 105.363 92.4754C104.942 92.1753 104.513 91.8704 104.091 91.5703C103.753 91.3293 103.397 91.1118 103.413 90.5037C102.91 90.2162 102.956 89.3463 102.422 89.0725C101.859 88.7957 101.381 88.3847 100.861 88.0324C99.8371 88.242 99.4048 87.4741 98.731 87.1186C98.3381 86.9098 98.0605 86.6414 98.2171 85.9385C98.313 85.5111 98.1071 85.3469 97.8691 85.213C97.7018 85.1116 97.5595 84.9749 97.4089 84.85C97.5831 84.6199 97.7649 84.5546 97.8893 84.6431C99.8139 85.9773 101.73 87.3232 103.646 88.6691C103.764 88.7527 103.859 88.9265 103.865 89.108C103.878 89.4709 104.095 89.4135 104.372 89.2738C104.718 89.0951 104.998 88.9937 105 89.4733C105 89.6499 105.184 89.7277 105.3 89.828C105.946 90.412 106.863 90.6749 107.115 91.7396C107.957 92.3564 108.791 92.985 109.634 93.5851C109.759 93.6736 109.912 93.7652 110.086 93.7116C110.516 93.5752 110.765 93.7523 111.012 93.9461C111.459 94.2991 111.975 94.3483 112.719 93.5672C112.831 93.4527 112.981 93.4177 113.12 93.3396C113.322 93.2174 113.33 93.2056 113.546 93.5896C113.629 93.7369 113.696 93.891 113.924 93.8052C114.258 93.6716 114.311 93.8325 114.288 94.1709C114.259 94.5926 114.018 94.6685 113.762 94.823C113.645 94.8992 113.498 95.0774 113.443 95.1979C113.302 95.5576 113.552 95.4698 113.718 95.4114C113.961 95.3187 114.03 95.4562 114.121 95.5917L115.011 96.3312C115.327 96.2377 115.357 96.4889 115.424 96.7313C115.492 96.957 115.93 96.8972 116.205 96.6143C116.462 96.3549 116.614 96.0385 116.42 95.8291C116.387 95.7878 116.362 95.7348 116.352 95.675C116.343 95.6151 116.35 95.5318 116.371 95.4583C116.381 95.4298 116.505 95.3585 116.532 95.3782C116.898 95.5673 117.254 95.7681 117.628 95.9455C117.79 96.0253 118.192 95.6211 118.168 96.0644C118.134 96.7126 118.847 96.5298 118.887 97.0889C118.89 97.2154 118.878 97.4371 118.945 97.4313C119.35 97.4185 119.766 97.3605 120.18 97.3193C120.115 97.8213 120.476 97.6357 120.745 97.6677C121.022 97.6879 121.183 97.9442 121.424 98.0448C121.495 98.0773 121.65 97.9756 121.756 97.9445C121.755 97.8729 121.777 97.7827 121.751 97.7463C121.525 97.3025 120.924 97.2993 120.829 96.7008C120.744 96.0738 120.166 96.052 119.892 95.662C119.825 95.5795 119.673 95.5595 119.676 95.4379C119.686 94.5601 119.027 94.4626 118.579 94.1262C117.118 93.0333 115.632 91.9757 114.169 90.8996C114.073 90.8307 113.954 90.6755 114.306 90.43C114.556 90.254 114.805 90.0064 115.019 89.7342C115.283 89.4082 115.491 89.2909 115.7 89.4218C116.047 89.6511 116.386 89.8921 116.741 90.1097C116.812 90.1422 117.038 90.073 117.081 89.9976C117.201 89.7997 117.28 89.5723 117.357 89.3616C117.368 89.3165 117.328 89.2704 117.295 89.2291C117.593 88.5912 117.227 88.4904 116.929 88.4554C116.66 88.4234 116.338 88.5836 116.42 88.0581C116.467 87.7727 116.448 87.4932 116.371 87.2792C116.24 86.9209 116.299 86.8386 116.68 86.8444C116.901 86.8419 117.176 86.7189 117.424 86.6478L118.571 86.4551C118.971 86.4207 119.148 86.6535 119.24 87.0372C119.301 87.258 119.414 87.5682 119.593 87.5362C120.232 87.4425 120.602 87.8297 121.165 87.8584C121.23 87.8693 121.424 87.6706 121.5 87.5482C121.577 87.4258 121.649 87.1935 121.602 87.1424C121.403 86.8948 121.163 86.7059 120.964 86.4583C120.898 86.3758 121.02 86.2329 121.203 86.1509C121.378 86.0806 121.477 85.9563 121.458 85.8366C121.368 85.2763 120.542 85.4854 120.719 84.6374C120.46 84.7369 120.195 84.8314 119.929 84.9427C119.64 85.0558 119.484 84.9094 119.326 84.7795C119.115 84.5937 119.466 84.1884 119.444 84.0138C119.383 83.3683 120.331 83.0162 120.275 82.3923C120.263 82.2775 120.547 81.9662 120.705 81.7596C120.746 81.7009 120.838 81.6599 120.899 81.6325C121.021 81.5779 121.05 81.6691 120.958 81.8867C120.9 82.0406 120.758 82.2403 120.773 82.3218C120.844 82.6024 121.039 82.2988 121.191 82.1589C121.496 81.8623 121.712 81.9099 121.878 82.028C122.349 82.3458 122.803 82.7038 123.274 83.0216C123.419 83.1249 123.74 82.8931 123.969 82.5425C124.173 82.2271 124.337 81.9371 124.165 81.7259C124.052 81.5922 124.075 81.4138 124.231 81.1356C124.404 80.8338 124.635 80.7147 124.871 80.9535C125.27 81.3438 126.045 81.2935 125.93 82.274C126.484 82.7392 127.005 83.2513 127.939 83.066C128.148 83.0203 128.332 82.85 128.455 82.6188C128.516 82.5032 128.528 82.2816 128.464 82.254C128.193 82.0788 128.054 81.8206 128.034 81.3811C128.013 80.9417 127.114 81.5763 127.3 80.7881C126.704 80.7182 126.227 80.3787 125.626 80.3755C124.494 80.3848 123.947 79.5882 123.242 78.9982C123.187 78.9588 123.36 78.5688 123.474 78.366C123.595 78.1515 123.735 77.8968 123.982 77.8424L125.131 78.1293C125.026 78.6568 125.873 78.0377 125.654 78.6964C126.009 78.754 126.371 78.8166 126.734 78.8625C126.785 78.8636 126.863 78.8128 126.924 78.7854C126.923 78.7138 126.945 78.6236 126.927 78.5755C126.885 78.4744 126.827 78.3801 126.744 78.3211C126.51 78.1372 126.324 78.0044 126.939 77.5928C127.205 77.4099 127.006 77.2506 126.909 77.1818C125.687 76.2944 124.457 75.4188 123.235 74.5315C122.896 74.2905 122.549 74.0612 122.21 73.8202C121.88 73.5674 122.082 73.3569 122.51 73.0773C122.603 73.0197 122.635 72.6529 122.749 72.4335C123.158 71.6095 123.092 71.1022 122.632 70.8276C122.368 70.6573 122.087 70.5106 121.863 70.2983C121.348 69.8077 120.529 69.6853 120.41 68.6974C120.396 68.5993 120.098 68.6526 119.917 68.7012C119.693 68.7537 119.583 68.6583 119.548 68.4738C119.502 68.2462 119.712 68.024 119.901 67.8753C120.391 67.4801 120.887 67.0898 121.375 66.7113C120.96 66.2563 120.964 66.2063 121.719 65.54C122.061 65.2347 121.874 65.1902 121.843 65.0439C121.752 64.572 121.77 64.5318 122.215 64.1404C122.327 64.0426 122.452 63.9546 122.568 63.8783C122.518 63.789 122.51 63.6242 122.416 63.6102C122.265 63.5736 121.908 63.7092 121.914 63.6425C121.993 62.7256 121.213 63.179 120.789 63.0722C120.653 63.0287 120.3 63.2026 120.301 63.1143C120.252 62.3187 119.387 62.3051 119.442 61.4235C119.907 60.887 120.337 60.7506 120.679 60.9583C121.028 61.1709 121.322 61.4157 121.47 61.9104C121.737 62.8084 122.117 62.7425 123.015 62.0363C123.251 61.8505 123.338 61.6996 123.357 61.4829C123.389 61.1161 123.43 60.721 122.992 60.8691C122.645 60.9762 122.266 61.0254 122.226 60.7311C122.122 59.9845 121.639 59.7118 121.193 59.3587C121.144 59.3242 121.22 59.1302 121.237 59.0184C121.305 58.996 121.391 58.9334 121.434 58.9463C121.799 59.1354 122.148 59.348 122.513 59.5371C122.541 59.5568 122.627 59.4942 122.695 59.4718C122.694 59.4002 122.718 59.2933 122.683 59.2687C122.218 58.8842 121.897 58.2666 121.067 58.4374C120.999 58.4598 120.947 58.2989 120.949 58.1939C120.958 57.7575 120.718 57.7285 120.347 57.8542C120.029 57.9644 119.853 57.8032 120.023 57.4465C120.283 56.9056 120.214 56.8565 119.816 56.8742C119.256 56.9005 119.27 56.8221 119.453 55.9789C119.527 55.6417 119.36 55.7002 119.178 55.7655C118.815 55.8962 118.36 56.2277 118.403 55.5677C118.411 55.4676 118.282 55.3575 118.176 55.3887C117.112 55.6404 116.785 54.7531 116.17 54.3153C116.238 53.62 115.735 53.8288 115.314 53.8652C115.018 53.8851 114.966 53.476 115.069 52.9652C115.145 52.5947 115.314 52.0948 115.19 51.918C114.922 51.5329 114.435 51.3985 114.404 50.7393C114.397 50.6461 114.081 50.7396 113.922 50.7147C113.719 50.677 113.525 50.6276 113.331 50.5781C113.152 50.7866 112.959 50.897 112.826 50.8203C112.073 50.444 111.475 49.8944 111.421 48.7408C111.399 48.318 111.083 48.4115 110.71 48.8187C110.515 49.0341 110.305 49.0797 110.217 48.9109C110.099 48.6674 110.021 48.3818 109.943 48.0962C109.891 47.9352 109.978 47.7844 110.119 47.7611C110.365 47.7234 110.592 47.7259 110.821 47.7116C111.05 47.6974 111.287 47.6714 111.524 47.6455C111.592 47.2866 111.369 47.2342 111.211 47.1044C111.075 46.9893 111.128 46.7972 111.186 46.555C111.38 45.7551 111.302 45.6461 110.809 46.0746C109.922 46.824 109.304 46.6677 108.667 46.5683C108.544 46.5513 108.515 46.2835 108.494 46.1089C108.478 45.9558 108.87 45.6683 109.153 45.6218C109.272 45.6005 109.387 45.6292 109.508 45.5912C109.644 45.5464 109.892 45.1389 109.866 45.0143C109.693 44.2185 109.349 43.6194 108.637 43.4492C108.565 43.4333 108.397 43.5968 108.286 43.6946C108.127 43.8296 108.053 44.007 108.14 44.1043C108.305 44.3106 108.488 44.4934 108.687 44.6528C108.823 44.7678 108.866 44.9572 108.7 45.1756C108.559 45.3587 108.338 45.5377 108.162 45.6246C107.491 45.9086 106.916 45.9417 106.456 45.6504C106.032 45.3836 105.687 44.9611 104.978 45.1823C104.903 45.1997 104.859 45.027 104.808 44.9377C104.913 44.8349 105.011 44.7106 105.128 44.6343C105.485 44.4105 105.858 43.8434 106.227 44.0707C106.332 44.1278 106.604 43.9499 106.802 43.8778C106.863 43.8504 106.988 43.7624 106.996 43.7507C106.999 43.6291 107.019 43.4839 106.975 43.3995C106.799 42.9734 106.23 43.3645 105.91 43.2432C106.187 42.8387 106.541 42.4001 106.127 42.1765C106.036 42.1293 105.902 42.0692 105.911 41.9691C105.958 41.419 105.747 41.3214 105.258 41.6284C104.939 41.8268 104.807 41.75 104.815 41.4018C104.823 41.0536 104.543 41.155 104.305 41.181C103.742 41.2406 103.372 41.0299 103.28 40.3981C103.207 39.8859 103.132 39.3188 102.457 39.4763C102.382 39.4938 102.347 39.3093 102.335 39.1945C102.274 38.549 101.885 38.2902 101.311 38.3949C100.401 38.5617 100.254 37.3775 99.2351 37.7853C99.2113 37.4674 99.2112 37.131 99.4068 36.7391C99.3322 36.6683 99.2562 36.6142 99.19 36.5317C99.1361 36.4757 98.5249 36.0761 98.4351 36.0122C98.3106 35.9236 98.1793 35.8302 98.0952 35.6995C98.0028 35.5807 98.0726 35.4533 98.2352 35.3566C98.5825 35.1611 98.6927 34.9917 98.462 34.7744C98.1444 34.4599 97.561 34.7529 97.1427 34.6676C97.0656 34.8783 97.009 35.1921 96.8977 35.2899C96.6126 35.5296 96.1691 35.1432 96.2577 34.7991C96.3435 34.4884 96.2061 34.8863 96.4592 34.6769C96.665 34.5048 96.8487 34.3345 96.7148 34.1861C96.4994 33.962 96.2185 33.8153 95.9628 33.6333C95.7485 33.4808 95.5411 33.3332 95.3519 33.1455C95.135 32.938 94.8026 32.8785 94.7766 32.4174C94.7423 31.9681 94.0859 32.5101 93.9556 32.1518C93.9377 32.1037 93.8574 32.0996 93.8479 32.0398C93.7904 31.8572 93.823 31.6503 94.0041 31.4251C94.6143 30.6555 94.6212 30.6604 94.3239 30.4489C94.0267 30.2374 93.5502 30.1461 93.5031 29.7586C93.4047 29.0336 92.8882 28.8961 92.5054 28.5707C92.3133 28.4163 92.0867 28.2373 91.8135 28.2553C91.4585 28.2859 91.2706 28.8426 90.9935 29.1588C90.7415 29.4398 90.4982 29.6207 90.24 29.7202C90.1414 29.7563 90.0403 29.7374 89.9544 29.7117C89.9406 29.7019 89.9675 29.5617 90.0093 29.5029C90.0958 29.3521 90.2031 29.216 90.3049 29.0583C91.0175 27.9544 91.0135 27.9162 90.126 27.9927C89.7863 28.0165 89.4466 28.0403 89.1152 28.0523C89.0665 28.1062 89.0079 28.1884 88.9621 28.2089C88.1842 28.629 88.1314 28.6446 88.2022 27.916C88.1962 27.3098 87.9306 27.1563 87.4981 27.1494C87.2708 27.147 87.0077 27.0483 86.7965 27.1989C86.239 27.6165 85.7818 27.8931 85.4325 27.5207C85.3994 27.4794 85.1674 27.6152 85.0768 27.7278C84.7747 28.0793 84.5761 28.1681 84.6207 27.7396C84.6729 27.1394 84.7513 26.5756 83.9766 26.8741C83.7642 26.9531 83.4183 26.7954 83.4397 26.6336C83.5577 25.8678 82.9998 26.0373 82.6542 26.1278C81.8577 26.3399 81.3167 26.0611 81.1318 25.487C80.9345 24.8863 80.5237 24.6294 80.1257 24.3108C79.8037 24.0462 79.4399 23.8404 79.1263 23.5642C79.0102 23.4639 79.0513 23.2452 79.1963 23.0121C78.9559 22.8233 78.7673 22.459 78.4538 22.5191C77.6492 22.6547 77.2435 22.1713 76.7026 21.8925C76.5269 21.8029 76.2646 21.8641 76.0373 21.8617C75.8612 21.8603 75.6881 21.8256 75.732 21.5736C75.7447 21.5119 75.9517 21.4113 76.0575 21.2919C76.2913 21.0511 76.5182 20.8054 76.7244 20.5449C76.8066 20.4441 76.8072 20.2675 76.841 20.1322C76.7716 20.1713 76.6966 20.1888 76.6479 20.2427C75.9101 21.0453 75.3987 21.0178 74.9719 20.6078C74.7481 20.3955 74.4658 20.2654 74.4384 19.8211C74.4293 19.6729 74.2496 19.545 74.0997 19.58C73.696 19.6645 73.2635 19.6577 73.2692 19.2546C73.2799 18.6249 72.6472 19.1483 72.5609 18.8744C72.4433 18.4544 72.1399 18.3978 71.7867 18.3235C71.4266 18.2443 71.1977 17.9221 70.9408 17.6685C70.84 17.5613 70.9375 17.4537 71.1306 17.3432C71.3084 17.2396 71.567 17.0519 71.648 16.8794C71.9025 16.317 71.4465 16.6652 71.2886 16.6236C70.8288 16.5089 70.5813 15.9787 69.8841 16.3146C69.5512 16.0069 68.9787 16.0066 68.9119 15.3395C68.8878 15.11 68.7347 14.9302 68.584 14.8053C68.2206 14.5112 67.8237 14.2642 67.4518 13.9819C66.8726 13.552 65.8888 13.8078 65.3961 13.2271C65.3699 13.1908 65.2783 13.2318 65.2172 13.2591C65.1713 13.2796 65.1004 13.3354 65.0906 13.3638C65.0695 13.4373 65.0539 13.5324 65.0801 13.5687C65.1504 13.6895 65.337 13.8223 65.1435 14.021C64.9501 14.2197 64.5526 14.4857 64.487 14.2266C64.4229 13.9508 64.3833 13.8164 64.0388 13.9784C63.8166 14.0859 63.4828 14.3794 63.4034 14.1105C63.3761 14.0025 63.6088 13.6901 63.7386 13.4639C63.7819 13.3884 63.8764 13.3141 63.8891 13.2523C63.9062 13.1405 63.9083 12.9473 63.8709 12.9561C63.5573 13.0162 63.166 13.1272 63.2357 12.6634C63.321 12.1045 62.6712 12.7397 62.6991 12.3346C62.7284 11.913 62.456 12.0909 62.1978 12.1904C61.8243 12.3494 61.5996 12.7383 61.3072 13.0614C61.1207 13.265 60.9155 13.2606 60.826 13.1084C60.7736 13.0357 60.7965 12.8572 60.8441 12.7318C60.9084 12.5829 61.0379 12.4448 61.1313 12.2989C61.4382 11.8092 61.3826 11.8581 61.1896 11.2074C61.0898 10.8354 60.9941 10.5017 60.5751 10.593C59.8716 10.7475 59.4413 10.5474 59.3665 9.80381C58.9871 9.69314 58.4404 9.81751 58.5584 9.05174C58.5642 8.98506 58.387 8.91209 58.2801 8.95992C57.8302 9.15316 57.5981 8.95257 57.3507 8.75882C57.0203 8.50603 56.6733 8.27675 56.3429 8.02397C56.101 7.8518 55.8402 7.89636 55.4893 8.30167C55.3417 8.47986 55.2253 8.46784 55.2161 8.31971C55.188 8.05189 55.2058 7.76356 54.7825 8.24129C54.3996 8.67694 53.893 8.84749 53.5276 9.4195C53.3323 9.72314 53.033 9.70484 52.9634 9.4075C52.9019 9.18668 53.0076 8.73082 52.737 8.8038C52.2624 8.94402 51.9637 8.74917 51.5785 8.70519C51.5272 8.7041 51.4563 8.75985 51.4021 8.7921C51.421 8.9118 51.4552 9.02467 51.4658 9.15612C51.4779 9.27091 51.5452 9.42504 51.495 9.49555C51.2859 9.78935 50.5272 9.90443 50.4977 9.65328C50.4572 9.35894 50.464 9.02744 50.6665 8.64045C50.4447 8.65959 50.2046 8.7189 50.0176 8.67436C49.8016 8.62682 49.7386 8.42267 49.9229 8.07586C49.2685 8.08818 48.3372 8.75313 47.9907 8.01088C47.2378 8.39571 47.0048 7.69882 46.4127 7.75541C45.754 7.81775 45.1022 7.885 44.4434 7.94734C44.2063 7.97331 43.9706 7.98261 43.7236 8.037C43.589 8.06516 43.5046 8.0228 43.5817 7.81209C43.9612 6.82522 42.9136 6.71703 43.4585 5.60007C43.5828 5.35219 43.0906 5.01961 42.8804 5.2418C42.2611 5.86329 41.9544 5.59192 41.5332 5.54001C41.4681 5.52908 41.2408 5.86305 41.0863 6.03633C41.4367 6.48041 40.6321 7.71354 41.3563 7.91028C41.4851 7.94881 41.3888 8.12809 41.2248 8.24152C41.0691 8.34318 40.7985 8.41617 40.875 8.71842C40.8928 8.76652 40.9328 8.81271 40.9674 8.8373C41.3327 9.02641 41.5303 9.53882 42.0926 9.31935C42.8673 9.02088 42.4125 10.1135 42.8491 10.1586C42.9585 10.1657 43.1044 10.0925 43.232 10.0594C43.375 10.0195 43.4176 10.1206 43.306 10.3067C43.2362 10.4341 43.0398 10.6661 42.99 10.6483C42.4109 10.5549 41.931 10.2488 41.2639 10.3229C40.3827 9.48339 38.6471 10.1956 37.8106 9.26403C37.7844 9.22768 37.6829 9.2971 37.6331 9.27934C37.1318 9.13506 36.0932 9.93611 36.1489 8.78965C35.8521 8.82628 35.4949 8.7137 35.2556 8.93289C34.3181 9.7528 33.8447 9.2035 33.2391 9.16198C32.6556 9.11855 32.4437 8.34815 31.6497 8.61518C31.8641 7.67013 31.1262 8.13639 30.7606 8.03556C30.4448 7.95249 30.6082 6.91807 30.9792 6.70407C31.7364 6.26924 32.1359 5.47367 32.6846 4.81966C32.8489 4.61797 33.0308 4.55265 33.1803 4.60593C33.4239 4.33673 33.6265 4.28616 33.8146 4.40231C34.0082 4.54004 34.2003 4.69444 34.5566 4.31073C34.9084 4.40172 35.1331 4.01282 35.3701 3.65042C35.5988 3.29978 35.59 3.06338 35.4118 2.91882C35.1935 2.72807 34.8716 2.79996 34.5381 3.00521C34.2282 3.19188 33.9082 3.49525 33.5969 3.69859C33.3329 3.86476 33.0317 3.9514 32.9509 3.69916C32.9098 3.58137 33.0454 3.2884 33.1293 3.0826C33.1937 2.93366 33.3468 2.77706 33.3958 2.63494C33.4365 2.50458 33.4274 2.35646 33.3917 2.26026C33.3051 2.0747 33.0789 2.14385 32.9145 2.34554C32.5203 2.82628 32.1702 3.39146 31.774 2.96787C31.7063 2.90201 31.5746 2.89682 31.4539 2.93481C30.1219 3.22619 29.1289 2.99748 28.8375 1.62174C28.8021 1.43727 28.4875 1.4258 28.2685 1.4116C28.1078 1.40341 27.8855 1.51082 27.687 1.59965C27.3065 1.7538 27.0643 1.6699 27.1241 1.23455C27.2269 0.475614 27.158 0.00172836 26.3193 0.360864C26.0138 0.497522 25.7173 0.44588 25.4318 0.437419C24.9135 0.404916 24.4618 0.703094 23.9796 1.35136C23.6382 1.81651 23.3587 2.41421 22.8004 2.67195C22.5713 2.77444 22.6645 3.0532 22.6263 3.23849C22.5726 3.51889 22.7097 3.54567 22.9235 3.45001C23.1901 3.33877 23.4458 3.18435 23.6771 2.88864C23.7189 2.82988 23.8618 2.78997 23.8618 2.78997C23.8669 2.89984 23.8997 3.02938 23.8481 3.11656C23.1031 4.33902 23.01 4.39669 21.985 4.53474C21.562 4.58777 21.1292 4.66923 20.6949 4.76736C20.5825 4.7936 20.4462 4.92669 20.3225 4.99803C20.3651 5.09914 20.3742 5.24727 20.4503 5.30138C20.6409 5.47245 20.8636 5.61319 21.0695 5.77743C21.3362 6.00261 21.3278 6.01436 20.8101 6.90285C20.8374 7.0108 20.9091 7.11493 20.8644 7.20703C20.7288 7.5 20.4364 7.82304 20.3841 8.08677C20.2642 8.62106 20.0966 8.94437 19.586 9.07667C19.2779 9.15839 18.9291 9.37048 18.6084 9.51397C18.3897 10.509 18.1222 10.124 17.801 10.0193C17.6155 9.9581 17.3169 10.0997 17.0994 10.0688C16.6712 10.012 16.0962 10.2932 15.7953 9.95516C15.776 9.92373 15.6746 9.99315 15.6065 10.0156C15.6033 10.1372 15.5513 10.3126 15.5983 10.3637C16.1276 10.7758 16.6821 11.1527 17.2115 11.5648C17.246 11.5894 17.1701 11.8717 17.1395 11.8854C16.8144 12.0789 16.4328 12.1614 16.1587 12.4443C15.691 12.9258 15.4331 12.9371 15.1763 12.6835C15.0686 12.5714 14.9289 12.4897 14.7681 12.4815C14.4604 12.475 14.5161 12.7625 14.4489 12.9448C14.3998 13.0869 14.3354 13.2358 14.2864 13.3779C14.3188 13.5957 14.2942 13.8791 14.4088 13.9961C14.7402 14.3205 14.4683 14.7466 14.1421 15.2049C14.5122 15.5921 15.1552 15.2885 15.6571 15.2562C16.2173 15.23 16.5021 15.415 16.3732 16.1376C16.3024 16.5297 16.3818 16.7986 16.6335 16.9424C16.8991 17.096 17.113 17.3367 17.3688 17.5187C17.6591 17.7253 17.4694 18.0506 17.2127 18.4698C16.9211 18.9527 16.9262 19.0626 17.2121 18.9828C17.8893 18.792 17.9925 19.7152 18.7704 19.2951C18.7061 19.444 18.6778 19.6009 18.5858 19.7302C18.4102 19.977 18.2436 20.0354 18.0664 19.9625C17.9737 19.9319 17.8362 19.9934 17.71 20.0098C17.7289 20.1295 17.709 20.2746 17.7683 20.3522C17.8676 20.476 17.9906 20.5812 18.1317 20.6463C18.5483 20.8365 18.655 21.2133 18.3569 21.9395C18.2449 22.2139 18.6523 22.2559 18.9043 21.975C19.0756 21.7782 19.2068 21.5352 19.385 21.3434C19.4657 21.2592 19.5974 21.2644 19.6945 21.245C19.7098 21.2382 19.6898 21.3833 19.6688 21.4568C19.3864 22.4243 19.596 22.715 20.2732 22.1878C20.8641 21.7232 21.2722 21.5887 21.6593 21.8642C21.9994 22.0886 22.2193 22.5991 22.7579 22.3982C23.5312 22.1164 23.1975 23.0827 23.5755 23.2101C23.7181 23.2585 23.8676 23.3117 24.0269 23.3366C24.1863 23.3615 24.3736 23.3177 24.5245 23.3544C24.7337 23.397 24.464 23.9663 24.8193 23.8474C25.0914 23.7577 25.2613 23.914 25.4846 23.8782C26.2557 23.7896 26.7185 24.2075 27.2246 24.5499C27.4472 24.6906 27.663 24.8265 27.8689 24.9907C28.0195 25.1156 28.3727 25.1899 28.1928 25.4867C28.003 25.8119 27.8156 25.5192 27.6355 25.4796C27.2255 25.3826 26.6938 25.5884 26.354 25.2758C26.0211 24.9681 25.3504 25.2521 24.9829 24.9197C24.7039 24.6681 24.4951 24.8736 24.2135 25.6645C24.079 26.0291 23.9237 26.0425 23.8033 25.9922C23.5624 25.8916 23.3565 25.7274 23.124 25.6151C23.0895 25.5905 22.9964 25.6481 22.9367 25.6588C22.9266 25.7755 22.8913 25.9275 22.9299 25.9903C23.0292 26.1141 23.1704 26.1791 23.285 26.2961C23.3112 26.3325 23.2982 26.4825 23.2745 26.5011C23.18 26.5754 23.0298 26.6987 22.973 26.676C22.782 26.5932 22.6176 26.4585 22.46 26.3287C22.2749 26.1792 22.3159 25.9605 22.5169 25.5902C23.0601 24.5782 23.0782 24.2016 22.6718 23.8947C22.3829 23.6714 22.0773 23.4717 21.7801 23.2602L20.1854 23.0282C19.7111 23.0801 19.3013 23.656 18.8525 23.9208C18.6983 24.0058 18.6187 24.1616 18.7195 24.2687C18.8934 24.4633 19.1328 24.5805 19.3151 24.7634C19.4228 24.8754 19.3886 25.099 19.2214 25.334C18.5532 25.3365 17.8247 25.5262 17.2226 25.2748C16.6482 25.043 15.9258 25.0778 15.4743 24.6148C15.2574 24.4074 15.0267 24.1901 14.591 24.3049C14.1247 24.4334 14.4202 23.6523 14.0572 23.6064C13.8397 23.5756 13.6992 23.334 13.4813 23.3914C12.9012 23.5627 12.6392 23.1993 12.2823 22.9984C12.0015 22.8517 11.729 22.6932 11.522 22.4573C11.2472 22.1556 10.6996 22.5448 10.3649 22.342C9.98869 22.1098 9.90506 22.2273 9.39894 22.9824C8.8761 23.761 8.90974 24.3869 9.53723 24.5147C10.0996 24.6317 10.5522 24.8298 10.4324 25.7005C10.3997 25.9074 10.4209 26.1703 10.5329 26.2324C11.0226 26.51 11.2836 27.1383 12.0536 26.9781C12.4573 26.8936 12.6545 27.1579 12.6987 27.5788C12.7176 27.6985 12.7529 27.883 12.8348 27.8704C13.5062 27.7463 13.5275 28.3456 13.6378 28.849C13.7074 29.1463 13.7853 29.4319 13.848 29.7244C13.9718 30.3259 14.6705 30.3097 14.6733 31.0375C15.2829 30.7808 15.5601 31.1375 15.8418 31.4441C16.1634 31.7969 16.6072 31.7586 17.1796 31.4225C17.4269 31.2798 17.479 31.4408 17.4823 31.6556C17.4838 31.9753 17.6428 32.0885 17.9385 31.9802C18.1953 31.8974 18.4648 31.7528 18.7201 31.6867C18.7423 31.6848 18.7576 31.6779 18.7728 31.6711C18.7561 31.6946 18.7296 31.7465 18.7598 31.8211C18.7707 31.8643 18.7147 32.0015 18.6758 32.0269C18.3824 32.2784 18.0751 32.52 17.7747 32.7665C17.5415 32.8307 17.296 32.8685 17.0585 32.9827C16.5155 33.2336 16.2415 33.8529 15.9484 34.3525C15.7754 34.6542 16.0744 34.7608 16.1916 34.9327C16.284 35.0515 16.311 35.2478 16.331 35.4391C16.35 35.5588 16.3326 35.7588 16.2573 35.8646C16.0733 36.1231 15.9434 36.013 15.8176 35.9411C15.6517 35.8231 15.4428 35.6922 15.1687 35.975C14.9112 36.2344 14.6639 36.3771 14.4042 36.4932C14.114 36.6231 13.9285 36.5618 13.7655 36.4104C13.5886 36.2492 13.5853 36.0344 13.7933 35.669C13.9496 35.3908 13.8557 35.2886 13.6197 35.3862C13.4211 35.475 13.2127 35.5922 13.0337 35.6242C12.8701 35.6494 12.6816 35.6215 12.6114 35.5007C12.515 35.3436 12.6705 34.9055 12.2803 35.088C11.9664 35.2364 11.7681 34.9006 11.3797 35.3146C11.2739 35.4341 11.1281 35.5073 11.003 35.5953C11.0731 35.3797 11.1349 35.1758 11.2119 34.9651C11.2835 34.7328 11.2104 34.6453 11.0642 34.8069C10.4948 35.4461 10.1739 35.2532 9.97412 34.934C9.30743 33.8223 9.32416 33.7988 8.23106 33.6228C7.78218 33.5512 7.42384 33.367 7.3873 32.7745C7.36937 32.39 7.12598 32.2345 6.84156 32.2977C6.43783 32.3821 6.1679 32.2785 5.8856 32.1485C5.70297 32.0539 5.36078 32.3592 5.28595 32.7131C5.15625 33.2758 4.72941 33.9634 5.07035 34.3477C4.92581 35.1654 5.21255 35.5819 5.68004 35.8614C6.16827 36.1557 6.68013 36.4315 7.07636 36.8551C7.48497 37.3052 8.37418 36.7872 8.74643 37.3177C9.01389 37.7027 9.85606 36.7973 10.1319 37.1706C10.4008 37.539 10.3508 38.2823 11.1019 38.0025C11.2462 37.9459 11.2445 38.0508 11.2674 38.2088C11.3858 38.7887 11.7703 39.0093 12.3639 38.936C12.6829 38.8974 12.4142 39.2019 12.3455 39.4009C12.2965 39.543 12.2205 39.8253 12.2427 39.8234C12.7043 39.8332 13.0492 40.2557 13.7031 39.6588C14.0847 39.9127 14.4664 40.1665 14.8564 40.4087C15.1067 40.5691 15.1569 40.835 14.8599 41.2963C14.931 41.9134 14.8654 42.7519 15.5157 42.7013C16.0482 42.6554 16.3524 42.8718 16.7009 43.0844C17.008 43.2675 17.2714 43.6143 17.6584 43.5533C18.3506 43.444 18.7388 43.7911 19.0674 44.1488C19.4097 44.5164 20.2099 44.0944 20.3108 44.8743C20.3662 45.2501 20.826 45.3649 21.1331 45.548C21.5038 45.7587 21.2887 46.5438 21.7583 46.6302C21.8961 46.4804 22.0423 46.3189 22.1387 46.476C22.1635 46.529 22.0755 46.6966 22.0279 46.822C22.0636 46.9182 22.1214 47.0125 22.1029 47.141C22.0583 47.5695 22.2046 47.7444 22.6072 47.5883C22.8654 47.4888 23.1236 47.3893 23.3971 47.283C23.2991 47.9037 23.7854 47.6301 24.0665 47.6886C24.3616 47.7569 24.204 48.7246 23.8549 49.025C23.7519 49.1111 23.5784 49.1646 23.501 49.1272C23.3514 49.0739 23.1536 48.9862 23.1597 48.8312C23.1799 48.2614 22.9082 48.2628 22.451 48.5394C22.1412 48.726 21.968 48.6913 21.9999 48.3246C22.0217 48.0745 21.8805 48.0095 21.6947 48.0365C21.4117 48.083 21.1056 48.7326 20.7946 48.5113C20.5955 48.352 20.3562 48.2347 20.1404 48.0989C20.099 48.0694 20.0575 48.0399 20.0229 48.0153C19.4392 48.3965 19.3355 48.3228 19.5183 47.6562C19.4437 47.5854 19.3691 47.5146 19.2876 47.4389C19.5057 46.9568 19.5864 46.5362 19.3615 46.2523C19.1986 46.4373 19.0222 46.5242 18.8712 46.4876C18.7134 46.4461 18.6155 46.3056 18.4562 46.2808C18.3772 46.26 18.1994 46.3636 18.095 46.4663C17.8946 46.6601 17.8285 46.914 17.9111 47.0613C17.9868 47.2037 18.1585 47.2551 18.2426 47.3857C18.2812 47.4485 18.2376 47.6122 18.2274 47.7289C17.847 47.8831 17.4718 48.4835 17.1102 48.421C16.9148 48.3882 16.7409 48.1936 16.7168 47.964C16.6512 47.3685 16.3551 47.2286 15.7877 47.3382C15.0482 47.4847 14.4026 47.397 13.9525 46.9174C13.6294 46.5813 13.0335 46.5113 12.8828 46.05C12.6841 45.466 12.4766 44.982 11.8164 45.061C11.2312 45.1225 10.8182 44.7225 10.0887 45.177C9.95666 45.2601 9.68529 45.1732 9.68161 45.0466C9.67349 44.6337 9.51161 44.5539 9.11991 44.7531C8.68931 44.9778 8.4274 44.9507 8.30433 44.5091C8.11683 43.88 7.70242 43.4966 6.96443 43.6264C6.54687 43.701 6.33838 43.4819 6.31644 43.0591C6.30363 42.7844 6.12434 42.9047 5.96356 42.8965C5.7515 42.8872 5.56742 42.8093 5.36662 42.755C4.82952 43.2756 4.21953 43.2841 3.67518 43.8881C3.60973 43.9654 3.32999 43.8903 3.25139 43.7812C3.12585 43.6211 3.12141 43.3347 3.0126 43.151C2.82117 42.8201 2.62719 42.4342 2.14418 42.5862C1.53351 42.7712 1.28065 42.5559 1.19973 41.9672C1.15928 41.6729 0.916756 42.0137 0.784402 42.185C0.526608 42.5327 0.246623 42.8822 0.500597 43.1692C0.634494 43.3176 0.726581 43.5247 0.80339 43.7387C0.992348 44.3511 1.57803 44.5378 1.67644 45.2628C1.71144 45.5356 2.08282 45.5697 2.27347 45.7408C2.45175 45.8853 2.6569 45.8897 2.95003 45.7265C3.36682 45.492 3.71379 45.3849 3.67831 45.9615C4.04168 45.9192 4.38832 45.9003 4.76149 45.8295C4.91134 45.7945 4.92919 45.8426 4.94378 46.0123C4.96641 46.2586 5.07376 46.4589 5.13385 46.6964C5.2908 47.3392 5.31975 48.1033 5.62143 48.6012C5.93549 49.1256 6.8945 48.4804 7.40927 48.7227C7.5435 48.7829 7.70974 48.8127 7.88724 48.7973C8.17568 48.7725 8.50671 48.8487 8.76673 48.6443C9.16021 48.3401 9.21295 48.3245 9.39055 48.6456C9.8298 49.4185 10.0142 49.4081 11.8286 49.4777C12.0919 49.4881 12.2149 49.5933 12.2026 49.9032C12.1903 50.2131 12.3159 50.3733 12.6283 50.2415C12.9865 50.0893 13.2441 50.1663 13.4166 50.3776C13.64 50.6782 14.0077 50.5858 14.419 50.3297C14.9304 50.0209 14.8108 50.4669 14.9069 50.7123C14.9906 50.9312 15.2347 50.9102 15.5034 50.6057C15.7454 50.7779 16.1251 50.8003 16.0983 51.2769C16.0701 51.7702 16.408 51.8513 16.6569 52.0284C16.8435 52.1612 17.0585 52.1372 17.3439 51.8092C17.4414 51.7015 17.661 51.5392 17.7094 51.5736C18.1395 51.8619 18.5458 52.1688 18.9591 52.4806C18.7673 53.3355 19.5252 52.7241 19.7726 52.9179C19.8694 52.9867 20.0628 52.7881 20.0355 52.6801C19.9386 52.2748 19.8029 51.8949 19.6907 51.4965C19.6729 51.4484 19.6954 51.3582 19.6943 51.2866C19.7554 51.2593 19.8263 51.2035 19.8623 51.2114C20.444 51.3598 21.0395 51.518 20.9041 52.4839C20.8213 53.0977 21.1145 53.2709 21.4285 53.4589C21.47 53.4885 21.51 53.5346 21.5613 53.5357C21.6111 53.5535 21.7151 53.539 21.7319 53.5155C21.8002 53.4048 21.8853 53.2706 21.9024 53.1588C21.9518 52.9285 21.9706 52.7117 21.9895 52.495C22.0014 52.2734 22.0821 52.1892 22.2484 52.219C22.7526 52.3299 23.0131 52.7101 23.0926 53.3154C23.1075 53.3968 23.2865 53.3649 23.3876 53.3837C23.4505 53.2514 23.5592 53.0987 23.561 52.9937C23.5882 52.7652 23.6467 52.683 23.7992 52.7029C23.9654 52.7327 24.0523 52.83 24.1015 53.0243C24.2242 53.5542 24.2548 53.5405 24.8065 53.1896C25.0163 53.0557 25.2025 52.9404 25.3157 53.074C25.375 53.1516 25.3772 53.2948 25.4198 53.3959C25.7445 54.0518 26.1764 54.5716 27.0475 54.4303C27.2555 54.4013 27.4676 54.4106 27.4433 54.6057C27.3576 55.2529 27.9244 55.3198 27.9042 55.8896C27.889 56.2329 28.1065 56.2638 28.3869 56.1624C28.7812 56.0181 29.1769 55.8571 29.574 55.6794C29.9101 55.5291 29.7854 55.8652 29.7709 56.0319C29.706 56.6939 29.5584 56.8721 29.0313 56.9396C28.6458 56.9839 28.5818 57.0445 28.5637 57.4211C28.5546 57.6094 28.4718 57.8868 28.7828 57.7718C29.2992 57.5728 29.9432 57.0043 30.2929 57.2885C30.8084 57.6908 31.5414 57.7875 31.7613 58.6344C31.943 59.3302 32.4753 59.709 33.4267 59.2353C33.6031 59.1484 33.8417 59.1058 33.9523 59.1845C34.4322 59.4906 34.8786 59.8436 35.3333 60.185C35.1477 60.8849 35.8732 60.3921 35.9387 60.6512C36.0902 61.2724 36.5769 61.2469 37.1167 61.1176C37.4913 61.0302 37.6532 61.11 37.7017 61.4808C37.7327 61.7153 37.8957 61.8667 38.0365 62.02C38.2173 62.2195 38.129 62.4753 37.8963 62.7877C37.7959 62.9287 37.6803 63.0766 37.5938 63.2274C37.4723 63.442 37.3716 63.6713 37.264 63.8957C37.5579 63.8924 37.7117 63.5592 37.9026 63.3056C38.0099 63.1695 38.0979 63.002 38.2189 62.8757C38.3248 62.7563 38.468 62.6281 38.5735 62.5969C38.679 62.5658 38.8078 62.6043 38.8671 62.6819C38.9595 62.8008 38.8813 62.9399 38.7271 63.0249C38.5951 63.108 38.4424 63.1763 38.3365 63.2957C38.1667 63.4758 37.998 63.7276 38.061 63.9317C38.1418 64.1839 38.5682 64.3457 38.7544 64.2304C39.0184 64.0642 38.6958 64.3126 38.8107 64.0049C38.8878 63.7942 38.8706 63.5696 39.1441 63.4632C39.8897 63.1618 40.5095 63.1249 40.9821 63.5143C41.2073 63.7099 41.3161 63.8936 41.0093 64.3833C40.8809 64.593 40.9472 64.6755 41.1137 64.617C41.2414 64.5839 41.4622 64.4932 41.4716 64.553C41.5667 65.0633 42.1178 65.2253 41.7012 66.1327C41.4929 66.5863 41.7461 66.7134 42.2007 66.3819C42.4746 66.1873 42.7295 65.873 42.5456 66.468C42.4852 66.6552 42.1914 66.9949 42.5675 66.8907C43.0033 66.7759 43.3405 67.0336 43.8453 66.6316C44.0344 66.4829 44.2573 66.199 44.3973 66.1924C44.701 66.1607 44.5247 66.584 44.5183 66.8273C44.5143 67.1254 44.5744 67.3629 44.7807 67.4389C45.3096 67.6028 46.1105 67.3407 46.1417 68.2481C46.8927 67.9682 47.1679 68.518 47.5757 68.8082C48.0319 69.1329 48.6412 69.301 48.6324 70.1621C49.0558 70.3572 49.2688 70.8628 49.8791 70.766C50.0581 70.734 50.2312 70.7687 50.3571 70.8406C50.8038 71.1054 51.3062 71.3213 51.6457 71.7222C52.0529 72.189 52.7799 72.016 53.2794 72.2652C53.6516 72.4592 53.9736 72.7237 54.3123 72.9648C54.6095 73.1763 54.9235 73.3643 55.2124 73.5876C55.5511 73.8286 56.0385 73.963 56.163 74.388C56.3109 74.8827 56.5234 75.1401 57.0268 75.0912C57.2203 76.3264 58.3507 76.1572 59.2612 76.2386C60.1495 76.322 60.7425 76.7617 61.1334 77.5001C61.2655 77.7534 61.3852 77.9802 61.5995 78.1327C61.8469 78.3265 62.2958 78.3981 62.2959 78.7345C62.3044 79.3956 62.8783 79.0427 63.1326 79.2414C63.2156 79.3005 63.3222 79.3409 63.3717 79.4469C63.9278 80.48 63.911 80.5035 65.1035 80.8032C65.1048 81.5477 66.0638 80.9024 66.16 81.4842C66.2197 81.81 66.3998 81.8496 66.6559 81.9433C67.3467 82.1871 67.9942 82.5063 68.2822 83.3308C68.4933 83.9413 68.9979 84.3004 69.637 84.2949C70.0862 84.2782 70.3878 84.4397 70.6629 84.6531C71.2268 85.0898 72.0456 85.2123 72.1332 86.2305C72.1358 86.2855 72.2049 86.3347 72.2576 86.3191C73.0781 86.0001 73.2897 86.8588 73.9124 86.7885C74.6614 86.7019 75.027 87.1391 75.5014 87.4236C75.9897 87.7179 76.4346 88.0877 76.8963 88.4339C76.6947 89.3172 77.5486 88.9512 77.723 89.394C77.9469 89.9427 78.4689 90.1018 78.8334 90.4674C78.9743 90.6207 79.1151 90.774 79.1919 90.988C79.3575 91.5308 79.685 91.8169 80.2855 91.7486C80.8944 91.6685 81.1623 92.3017 81.894 91.9904C82.0315 91.9289 82.2429 92.1147 82.2353 92.2863C82.2159 93.016 82.7368 93.1034 83.0682 93.4278C83.6151 93.9763 84.5158 94.0861 84.6365 95.1457C85.3484 95.6523 85.875 96.4342 87.004 96.2817C87.2853 96.6766 87.7795 96.1431 88.1919 95.9586C88.1979 96.5648 88.5642 96.8255 88.9491 96.9577C89.5817 97.1955 89.6089 98.0645 90.1135 98.4236C90.9721 99.0169 91.8071 99.6288 92.6406 100.257C92.8687 100.42 93.1237 100.442 93.4848 100.256C93.8238 100.073 94.1035 100.148 94.4032 100.078C94.9361 99.9435 95.138 100.069 95.2247 100.591C95.3034 101.037 95.6814 101.164 96.2331 100.813C96.7917 100.467 97.1598 100.623 97.304 100.991C97.5235 101.59 97.931 101.968 98.2174 102.473C98.7694 103.468 99.1758 103.775 100.442 103.986C100.608 104.015 100.752 104.047 100.77 104.272C100.808 105.184 101.641 105.14 102.056 105.595C102.272 105.819 102.514 105.991 102.968 105.836C103.316 105.712 103.651 105.915 103.518 106.263C103.115 107.268 103.458 107.459 104.093 107.327C104.407 107.267 104.257 107.55 104.304 107.69C104.403 107.99 104.583 108.189 104.923 108.077C105.18 107.995 104.977 107.461 105.354 107.428C105.576 107.409 105.728 107.694 105.94 107.615C106.72 107.338 107.524 106.954 108.317 106.615C108.481 106.254 108.615 105.889 108.815 105.536C109.051 105.102 109.455 104.929 109.633 105.162C109.957 105.569 110.054 106.223 110.541 106.446C110.569 106.465 110.56 106.565 110.554 106.632C110.543 106.765 110.383 106.917 110.279 106.843C109.916 106.549 109.412 107.536 109.06 107.357C108.911 107.551 108.76 107.763 108.599 107.931C108.429 108.111 108.367 108.067 108.344 107.909C108.321 107.751 108.378 107.437 108.064 107.674C107.749 107.911 107.434 108.164 107.137 108.449C106.937 108.643 106.861 108.925 106.952 109.061C107.135 109.315 107.399 109.485 107.59 109.745C107.715 109.905 107.743 110.173 107.861 110.345C107.982 110.555 108.311 110.488 108.508 110.239C108.781 109.885 109.032 109.532 109.298 109.173C109.615 108.743 109.626 108.449 109.434 108.207C109.348 108.093 109.453 107.902 109.572 107.88C109.879 107.815 110.181 107.889 110.476 107.709C111.056 107.361 111.003 107.801 111.109 108.106C111.165 108.306 111.386 108.215 111.532 107.965C111.636 107.791 111.52 107.514 111.873 107.428C112.797 107.183 113.231 107.934 114.125 107.775C114.275 107.74 114.245 108.249 114.412 108.279C114.73 108.329 115.12 108.235 115.495 108.147C115.899 108.063 116.31 107.47 116.252 107.04C116.028 106.579 116.008 105.963 115.614 105.683ZM117.235 89.2397C117.244 89.228 117.259 89.2212 117.282 89.2026L117.278 89.2526C117.256 89.2545 117.242 89.2447 117.235 89.2397C117.148 89.319 117.053 89.3933 116.958 89.4677C116.943 89.4745 116.882 89.4136 116.891 89.4018C117.03 89.1471 117.13 89.1826 117.235 89.2397ZM124.613 76.9993C124.635 76.9974 124.636 77.069 124.64 77.1072C124.607 77.1542 124.575 77.1846 124.541 77.2316C124.51 77.1736 124.486 77.104 124.455 77.046C124.507 77.0304 124.561 76.9982 124.613 76.9993ZM121.504 72.8221C121.507 72.8771 121.494 72.9388 121.497 72.9938C121.444 73.0093 121.391 73.0249 121.338 73.0405C121.327 72.9973 121.315 72.9708 121.304 72.9276C121.365 72.9003 121.435 72.8612 121.504 72.8221ZM120.191 74.3307C120.198 74.3357 120.198 74.3357 120.205 74.3406C120.205 74.3406 120.197 74.3523 120.195 74.369C120.32 74.4575 120.445 74.5294 120.561 74.6297C120.874 74.9227 121.558 74.4004 121.836 74.8286C122.036 75.1478 122.399 75.282 122.687 75.5053C123.026 75.7463 123.373 75.9756 123.697 76.2234C124.013 76.4664 123.811 77.0132 123.255 77.5025C123.199 77.5514 123.124 77.5689 123.063 77.5962C123.069 77.5295 123.047 77.4432 123.082 77.3795C123.308 76.9739 123.419 76.6279 123.116 76.4831C122.934 76.3885 122.814 76.1617 122.602 76.1524C122.332 76.1371 121.995 76.2874 121.769 76.1084C121.215 75.6433 120.627 75.2252 120.073 74.7601C120.038 74.7355 120.138 74.5229 120.187 74.3808C120.18 74.3758 120.18 74.3758 120.173 74.3709C120.183 74.3425 120.183 74.3425 120.191 74.3307C120.074 74.2471 119.956 74.1635 119.847 74.0681C119.812 74.0435 119.849 73.8749 119.864 73.8681C119.966 73.7987 120.099 73.6989 120.171 73.7147C120.393 73.7839 120.427 73.985 120.191 74.3307ZM121.213 71.8711C121.233 71.9741 121.238 72.084 121.258 72.187C121.024 72.2679 120.774 72.3556 120.541 72.4199C120.541 72.4199 120.539 72.2767 120.574 72.213C120.61 72.1326 120.668 72.0504 120.717 71.9965C120.879 71.8282 121.074 71.7727 121.213 71.8711ZM118.211 66.4603C118.307 66.5458 118.372 66.5567 118.388 66.6215C118.431 66.7226 118.441 66.8541 118.469 66.962C118.349 66.9834 118.23 67.0047 118.112 67.0093C118.061 67.0082 118.005 66.9689 117.988 66.9208C117.912 66.7784 117.86 66.6174 117.799 66.4682C117.969 66.4647 118.131 66.4562 118.211 66.4603ZM116.644 65.4869C116.672 65.5065 116.723 65.5076 116.727 65.5459C116.739 65.6607 116.659 65.7449 116.52 65.7347C116.498 65.7367 116.515 65.6249 116.534 65.568C116.544 65.5396 116.605 65.5123 116.644 65.4869ZM119.118 61.4404C119.196 61.3896 119.288 61.4202 119.376 61.4292C119.384 61.4175 119.408 61.3989 119.416 61.3871L119.412 61.4371C119.396 61.444 119.382 61.4341 119.376 61.4292C119.28 61.5202 119.182 61.6279 119.107 61.6454C118.988 61.6667 119.001 61.5167 119.118 61.4404ZM115.58 64.2164C115.589 64.2046 116.231 65.1751 116.223 65.1868C116.196 65.2387 116.176 65.2956 116.135 65.3543C115.986 65.5492 115.364 65.6911 115.251 65.5574C115.077 65.3629 115.148 64.7941 115.404 64.3916C115.447 64.3161 115.525 64.2653 115.58 64.2164ZM114.955 64.2317C114.949 64.2984 114.945 64.3484 114.939 64.4151C114.886 64.4307 114.834 64.4462 114.781 64.4618C114.77 64.4186 114.759 64.3755 114.747 64.349C114.809 64.305 114.886 64.2708 114.955 64.2317ZM42.3013 7.67986C42.2947 7.58667 42.3896 7.42406 42.4456 7.28686C42.4456 7.28686 42.4456 7.28686 42.4387 7.28194C42.3295 7.18657 42.2051 7.09803 42.1043 6.9909C42.0781 6.95455 42.1133 6.8026 42.1133 6.8026C42.2217 6.7381 42.3468 6.6501 42.4189 6.66594C42.6709 6.72141 42.6659 6.94797 42.4303 7.2937C42.4303 7.2937 42.4303 7.2937 42.4219 7.30545C42.4576 7.40164 42.5308 7.48909 42.4915 7.60279C42.473 7.73123 42.3202 7.79956 42.3013 7.67986ZM34.7078 3.92265C34.7159 3.99917 34.6461 4.12652 34.5915 4.24705C34.6054 4.25689 34.6039 4.27356 34.6177 4.28339L34.5719 4.30389C34.5734 4.28722 34.5901 4.26372 34.6068 4.24022C34.5697 4.16069 34.5089 4.09975 34.5245 4.00464C34.5361 3.87127 34.6889 3.80295 34.7078 3.92265ZM27.2806 15.7207C27.3847 15.7062 27.5138 15.6564 27.5913 15.6939C27.7684 15.7668 27.7689 16.015 27.6161 16.0833C27.5092 16.1311 27.3775 16.1259 27.332 16.0582C27.2713 15.9972 27.2927 15.8354 27.2806 15.7207ZM29.9684 5.66615C29.9346 5.80143 29.8855 5.94354 29.8518 6.07882C29.7405 6.17667 29.6292 6.27451 29.5179 6.37235C29.5114 6.27916 29.4578 6.13486 29.4898 6.10453C29.6429 5.94792 29.8084 5.81783 29.9684 5.66615ZM28.8133 5.02122C28.8519 5.08408 28.9236 5.1882 28.8887 5.25188C28.784 5.44291 28.6433 5.62602 28.5109 5.79738C28.5178 5.8023 28.5164 5.81897 28.5302 5.82881C28.5204 5.85723 28.512 5.86898 28.5022 5.89741C28.5837 5.97311 28.6499 6.05564 28.4703 6.26417C28.462 6.27592 28.3692 6.24531 28.3859 6.22181C28.4168 6.11987 28.4713 5.99934 28.5022 5.89741C28.4884 5.88757 28.4746 5.87773 28.4608 5.86789C28.4775 5.84439 28.4858 5.83264 28.5026 5.80913C28.3618 5.65582 28.4042 5.42052 28.6424 5.12972C28.6842 5.07097 28.7926 5.00646 28.8133 5.02122ZM27.3473 4.49136C27.3415 4.55804 27.3273 4.63648 27.3215 4.70316C27.2604 4.73049 27.2008 4.74116 27.1397 4.76849C27.1455 4.7018 27.1458 4.61353 27.1709 4.57827C27.2127 4.51952 27.2946 4.50694 27.3473 4.49136ZM16.9082 14.3762C16.907 14.3046 16.9059 14.233 16.8895 14.1682C16.9423 14.1526 17.0201 14.1018 17.0408 14.1165C17.0685 14.1362 17.0307 14.2332 17.0263 14.2832C16.9943 14.3136 16.9471 14.3507 16.9082 14.3762ZM18.7165 12.4057C18.3997 12.5874 18.0691 12.7593 17.8745 12.55C17.8206 12.494 17.8213 12.3174 17.8675 12.2087C17.922 12.0881 18.0696 11.9099 18.1696 11.8572C18.5224 11.6834 18.688 11.8897 18.8466 12.0911C18.8728 12.1274 18.8503 12.2176 18.8598 12.2775C18.8125 12.3147 18.7638 12.3685 18.7165 12.4057ZM19.4048 11.4969C19.2699 11.6134 19.2175 11.5407 19.2418 11.3455C19.2835 10.9504 19.0343 10.8616 18.859 10.6836C18.8051 10.6276 18.8334 10.4708 18.8214 10.356C18.9323 10.3464 19.0614 10.2967 19.1557 10.3106C19.2568 10.3294 19.323 10.412 19.406 10.471L19.3976 10.4828C19.5151 10.5664 19.6715 10.6246 19.7487 10.7503C19.7942 10.8181 19.7629 11.0083 19.7084 11.1288C19.6524 11.266 19.5161 11.3991 19.4048 11.4969ZM24.4433 4.79701C24.5342 4.59613 24.6028 4.39718 24.7076 4.20614C24.7243 4.18264 24.8712 4.18099 24.9516 4.18509C24.8956 4.32228 24.8604 4.47423 24.7782 4.57508C24.696 4.67593 24.56 4.72075 24.4433 4.79701ZM20.4627 15.7903C20.3459 15.8666 20.2212 15.8663 20.1059 15.9259C19.9226 16.0079 19.8756 15.9568 19.9749 15.7442C20.0029 15.6756 20.0447 15.6168 20.0712 15.5649C20.2483 15.3014 20.4218 15.2478 20.5629 15.3129C20.6404 15.3503 20.6746 15.4632 20.727 15.5359C20.6478 15.6034 20.5558 15.7327 20.4627 15.7903ZM30.0773 20.2777C29.9231 20.3627 29.6375 20.3542 29.6255 20.2395C29.5727 19.9186 29.557 19.6773 29.1169 19.8421C28.7906 19.964 28.5683 19.735 28.5628 19.377C28.5572 19.019 28.3852 19.0559 28.0964 19.169C27.5119 19.3904 27.4828 19.3874 27.5241 18.7441C27.5567 18.2008 27.4083 18.2191 26.9934 18.6851C26.9043 18.781 26.7072 18.8532 26.6366 18.8206C26.3958 18.7201 26.1982 18.5441 25.9672 18.4151C25.4444 18.0962 25.0122 17.6647 24.2356 17.7317C23.8515 17.7593 23.3102 17.5688 23.849 16.6068C23.9802 16.3638 23.8256 16.2007 23.6579 16.1876C23.4389 16.1734 23.1865 16.2062 22.9297 16.289C22.287 16.5044 21.9403 16.1868 21.5434 15.9398C21.2778 15.7862 21.2956 15.4979 21.5344 15.0305C21.6838 14.7474 21.7238 14.4572 21.8081 14.1631C21.2358 13.7381 20.8155 13.085 19.8429 13.2957C19.6181 13.3482 19.5933 12.9588 19.8511 12.6111C20.2259 12.099 20.3229 11.7431 20.0606 11.468C20.0344 11.4316 20.0722 11.3346 20.078 11.2679C20.146 11.2455 20.2308 11.1996 20.2653 11.2242C20.4396 11.3305 20.6389 11.4015 20.7561 11.5734C20.894 11.7601 21.8218 12.4025 22.0808 12.4629C22.2816 12.5173 22.4864 12.6099 22.6119 12.7701C22.7651 12.9499 22.8012 13.2943 22.9795 13.4388C23.1232 13.5588 23.4091 13.479 23.628 13.4932C23.6793 13.4943 23.7263 13.5454 23.7441 13.5935C23.7783 13.7064 23.8555 13.8321 23.8024 13.9359C23.7101 14.1535 23.5483 14.4101 23.3249 14.4459C23.146 14.4779 22.9881 14.4363 22.7924 14.4918C22.6495 14.5317 22.3732 15.0078 22.4547 15.0835C22.6868 15.2841 22.8939 15.5199 23.1678 15.6618C23.3159 15.7317 23.5275 15.4929 23.6795 15.2647C23.8398 15.0247 23.6306 14.6457 24.0663 14.5309C24.2161 14.4959 24.3195 14.6579 24.4439 14.7465C24.4523 14.7347 24.4606 14.723 24.469 14.7112C24.4759 14.7161 24.4828 14.7211 24.4966 14.7309C24.6163 14.6213 24.7625 14.4598 24.7985 14.4677C25.1306 14.6155 25.4628 14.7634 25.7364 14.9935C25.9892 15.2088 26.269 15.284 26.6854 15.1377C26.8672 15.0724 27.0143 15.4072 26.9197 15.4815C26.7932 15.5862 26.6572 15.631 26.5182 15.7092C26.2335 15.8606 26.0283 15.8563 25.85 15.7117C25.4022 15.3753 24.946 15.0506 24.4897 14.726C24.4814 14.7377 24.4661 14.7446 24.4577 14.7563C24.4508 14.7514 24.4439 14.7465 24.437 14.7416C24.2934 14.958 24.1137 15.1665 24.0367 15.3772C23.9022 15.7418 24.1292 15.8325 24.3035 15.9389C24.4279 16.0274 24.5589 16.2091 24.7102 16.1575C25.3696 15.9186 25.6814 16.2998 26.0714 16.5419C26.4614 16.7841 26.762 17.2104 27.4523 16.8696C28.0148 17.3229 28.6092 17.746 29.1063 18.2767C29.2402 18.4251 29.3355 18.5106 29.5432 18.5699C30.043 18.7309 30.4549 19.0594 30.8863 19.331C30.9278 19.3605 30.8686 19.6193 30.813 19.6682C30.5806 19.8923 30.3315 20.1399 30.0773 20.2777ZM31.5719 20.226C31.3933 20.1697 31.4951 20.012 31.5969 19.8543C31.59 19.8494 31.5914 19.8327 31.5929 19.8161C31.5943 19.7994 31.611 19.7759 31.6194 19.7641C31.5823 19.6846 31.5146 19.6187 31.5386 19.5119C31.5655 19.3717 31.7182 19.3034 31.7441 19.428C31.7521 19.5045 31.6739 19.6436 31.6194 19.7641C31.6263 19.769 31.6318 19.7906 31.6387 19.7956C31.622 19.8191 31.6136 19.8308 31.6038 19.8592C31.634 19.9338 31.6711 20.0134 31.6846 20.1115C31.6846 20.1115 31.5872 20.2192 31.5719 20.226ZM19.1091 25.6967C19.1011 25.6201 19.1709 25.4928 19.2239 25.3889C19.2101 25.3791 19.2116 25.3624 19.1977 25.3526L19.2436 25.3321C19.2421 25.3488 19.2254 25.3723 19.2087 25.3958C19.2458 25.4753 19.2982 25.548 19.284 25.6264C19.2571 25.7666 19.1197 25.8281 19.1091 25.6967ZM20.6535 26.7603C20.6273 26.7239 20.728 26.4946 20.8101 26.3938C20.8923 26.2929 21.0214 26.2432 21.1298 26.1787C21.0975 26.2973 21.0859 26.4306 21.0328 26.5345C20.9226 26.7039 20.7652 26.9106 20.6535 26.7603ZM17.6442 33.1693C17.6362 33.0928 17.7144 32.9537 17.7689 32.8332C17.762 32.8283 17.7565 32.8067 17.7496 32.8018L17.7954 32.7813C17.794 32.7979 17.7772 32.8214 17.7689 32.8332C17.806 32.9127 17.8653 32.9903 17.8428 33.0805C17.8006 33.2275 17.6632 33.289 17.6442 33.1693ZM13.6227 39.6547C13.6325 39.6263 13.6409 39.6145 13.6507 39.5861C13.5845 39.5036 13.4877 39.4347 13.691 39.2076C13.6993 39.1958 13.7837 39.2382 13.7823 39.2549C13.7514 39.3568 13.7052 39.4656 13.659 39.5743C13.6729 39.5842 13.6783 39.6058 13.6922 39.6156L13.6227 39.6547ZM18.7238 33.2472C18.7798 33.11 18.815 32.958 18.8972 32.8572C18.9794 32.7563 19.1154 32.7115 19.278 32.6148C19.162 32.8509 19.0795 33.04 18.961 33.2212C18.9359 33.2565 18.8057 33.2346 18.7238 33.2472ZM18.3808 37.0216C18.3866 36.9549 18.3924 36.8883 18.4066 36.8098C18.4677 36.7825 18.5608 36.7248 18.5884 36.7445C18.623 36.7691 18.5768 36.8779 18.571 36.9446C18.5099 36.9719 18.4488 36.9992 18.3808 37.0216ZM28.8551 25.5509C28.8609 25.4842 28.8667 25.4175 28.8725 25.3509C28.9337 25.3235 29.0184 25.2776 29.046 25.2973C29.0806 25.3219 29.0497 25.4238 29.0439 25.4905C28.9759 25.5129 28.9232 25.5285 28.8551 25.5509ZM34.8423 25.2441C34.823 25.2126 34.8455 25.1224 34.8513 25.0558C34.9124 25.0284 34.9804 25.006 35.0415 24.9787C35.0357 25.0454 35.0215 25.1238 35.0157 25.1905C34.9561 25.2011 34.8699 25.2637 34.8423 25.2441ZM36.2747 25.4845C36.1969 25.5353 36.118 25.5146 36.039 25.4938C36.0223 25.5173 35.9987 25.5359 35.9903 25.5476C35.9765 25.5378 35.9627 25.528 35.9488 25.5181C35.8543 25.5925 35.7666 25.6717 35.6721 25.7461C35.6568 25.7529 35.5975 25.6753 35.6059 25.6635C35.7509 25.4304 35.8506 25.4659 35.9405 25.5299C35.9557 25.5231 35.9725 25.4995 35.9878 25.4927C36.0099 25.4908 36.0238 25.5006 36.039 25.4938C36.1198 25.4096 36.2089 25.3137 36.2769 25.2913C36.3962 25.27 36.3915 25.4083 36.2747 25.4845ZM38.2174 26.442C38.0883 26.4918 37.9592 26.5415 37.8231 26.5864C37.6718 26.638 37.6292 26.5369 37.7507 26.3224C37.9419 25.9805 38.2183 25.8408 38.4049 25.9736C38.4228 26.0217 38.4559 26.063 38.4654 26.1228C38.4829 26.2592 38.3923 26.3718 38.2174 26.442ZM15.7442 50.3699C15.6343 50.451 15.53 50.5538 15.427 50.6399C15.434 50.6448 15.4256 50.6565 15.4325 50.6615L15.3798 50.677C15.395 50.6702 15.4118 50.6467 15.427 50.6399C15.3193 50.1914 15.1962 49.7498 14.8797 49.5068C14.8451 49.4822 14.876 49.3803 14.8749 49.3087C14.9429 49.2863 15.0291 49.2237 15.0636 49.2483C15.4122 49.4609 15.7941 49.6265 16.0688 49.9282C16.2373 50.1012 15.9096 50.2398 15.7442 50.3699ZM18.8908 47.5283C18.9686 47.4775 19.0614 47.5081 19.1487 47.5171C19.1654 47.4936 19.1807 47.4868 19.1974 47.4633L19.1931 47.5133C19.1778 47.5201 19.164 47.5103 19.1502 47.5004C19.0542 47.5914 18.9567 47.6991 18.8818 47.7166C18.7527 47.7664 18.7741 47.6046 18.8908 47.5283ZM17.6284 50.6485C17.3218 50.7136 17.0432 50.7101 16.7173 50.7437C16.7162 50.6721 16.6765 50.5376 16.7266 50.4671C17.0292 50.0274 17.3302 49.6043 17.357 49.1277C17.461 49.1132 17.6443 49.0312 17.6622 49.0793C17.7758 49.4611 17.8657 49.8615 17.9237 50.2922C17.9415 50.3403 17.7033 50.631 17.6284 50.6485ZM25.9793 49.5808C25.5846 49.4769 24.9732 49.8385 24.7141 49.4417C24.7058 49.4535 24.7127 49.4584 24.7043 49.4701C24.689 49.477 24.6752 49.4671 24.6683 49.4622C24.5723 49.5532 24.4749 49.6609 24.3999 49.6784C24.2806 49.6997 24.2937 49.5497 24.4104 49.4734C24.4882 49.4226 24.581 49.4532 24.6614 49.4573C24.6698 49.4455 24.6934 49.4269 24.7018 49.4152C24.7087 49.4201 24.7087 49.4201 24.7156 49.425C24.9068 49.0831 24.8118 48.9093 24.6877 48.7325C24.6175 48.6117 24.7153 48.4158 24.8262 48.4062C25.2242 48.3884 25.6388 48.3471 26.0004 48.4097C26.2969 48.4613 26.2704 48.8497 26.2011 49.2252C26.1822 49.4419 26.0873 49.6045 25.9793 49.5808ZM54.3665 9.73321C54.2457 9.7712 54.2602 9.60449 54.3853 9.51649C54.4631 9.46565 54.5559 9.49626 54.6432 9.50527C54.6516 9.49352 54.6752 9.47494 54.6836 9.46319C54.6905 9.4681 54.6974 9.47302 54.7043 9.47794C54.9439 9.17048 55.1269 9.17676 55.283 9.32324C55.3092 9.35958 55.3296 9.46262 55.3059 9.4812C55.2252 9.56538 55.1041 9.69164 55.0612 9.6788C54.9255 9.63535 54.8233 9.5449 54.7043 9.47794C54.6959 9.48969 54.6807 9.49653 54.6723 9.50828C54.657 9.51511 54.6432 9.50527 54.6363 9.50035C54.5556 9.58453 54.4567 9.70888 54.3665 9.73321ZM42.1162 28.4552C42.0151 28.4364 41.9237 28.3891 41.7688 28.3142C41.7331 28.218 41.681 28.0571 41.629 27.8961C41.7883 27.921 41.9574 27.9174 42.1 27.9658C42.1928 27.9964 42.2507 28.0907 42.3085 28.185C42.3347 28.2213 42.3038 28.3232 42.3049 28.3948C42.2438 28.4222 42.1591 28.4681 42.1162 28.4552ZM56.7077 10.4964C56.2647 10.6946 56.0144 10.5342 55.9063 10.174C55.883 10.1043 55.9695 9.95343 56.0255 9.81623C56.0117 9.80639 55.9979 9.79656 55.984 9.78672C56.0008 9.76321 56.0022 9.74654 56.012 9.71812C55.9222 9.65417 55.8559 9.57164 56.0439 9.35136C56.0523 9.33961 56.1451 9.37021 56.1436 9.38688C56.1044 9.50057 56.0582 9.60935 56.012 9.71812C56.0259 9.72796 56.0397 9.7378 56.0535 9.74763C56.0521 9.7643 56.0353 9.78781 56.0339 9.80448C56.2493 10.0286 56.5919 9.97144 56.9611 9.86238C57.0513 9.83806 57.1561 9.98344 57.1474 10.0835C57.0976 10.4021 56.8605 10.4281 56.7077 10.4964ZM57.1822 11.1173C57.1782 11.0791 57.1658 11.0526 57.1549 11.0094C57.2244 10.9703 57.2953 10.9145 57.3647 10.8755C57.352 10.9372 57.3601 11.0137 57.335 11.049C57.3015 11.096 57.235 11.1018 57.1822 11.1173ZM58.258 11.8298C58.2205 11.8385 58.19 11.8522 58.1831 11.8473C58.1408 11.6579 58.2146 11.5688 58.3823 11.5819C58.3765 11.6486 58.3707 11.7153 58.3718 11.7869C58.3427 11.7838 58.3038 11.8093 58.258 11.8298ZM60.1354 12.44C60.0743 12.4673 59.9896 12.5132 59.955 12.4886C59.7517 12.3793 59.5498 12.2533 59.3562 12.1156C59.3479 12.1273 59.3326 12.1342 59.3242 12.1459C59.3173 12.141 59.3104 12.1361 59.3035 12.1312C59.0541 12.4671 58.8558 12.4676 58.7165 12.2976C58.6972 12.2662 58.7015 12.2162 58.7142 12.1544C58.7269 12.0927 58.7397 12.0309 58.7524 11.9691C58.7829 11.9555 58.8135 11.9418 58.8593 11.9213C58.8898 11.9076 58.9273 11.8989 58.9411 11.9087C59.0754 11.9688 59.186 12.0475 59.3118 12.1194C59.3202 12.1077 59.3286 12.0959 59.3369 12.0842C59.3438 12.0891 59.3508 12.094 59.3577 12.0989C59.6042 11.7964 59.8039 11.7791 59.9516 11.9374C60.0524 12.0445 60.1296 12.1702 60.2067 12.2959C60.2107 12.3342 60.1576 12.438 60.1354 12.44ZM68.6746 25.1551C68.6156 24.9892 68.6978 24.8884 68.8571 24.9132C68.8793 24.9113 68.847 25.0299 68.8412 25.0966C68.7801 25.1239 68.6801 25.1767 68.6746 25.1551ZM61.9899 39.9776C62.0027 39.9158 62.0085 39.8492 62.0059 39.7942C62.0117 39.7275 62.0313 39.6707 62.0579 39.6188C62.1346 39.4963 62.2735 39.4182 62.3931 39.3086C62.3761 39.4204 62.3507 39.5439 62.3336 39.6557C62.2376 39.7467 62.1347 39.8328 62.0387 39.9238C62.0219 39.9473 62.0067 39.9541 61.9899 39.9776ZM72.0579 28.2C71.987 28.2557 71.8088 28.4476 71.6324 28.5345C71.5324 28.5873 71.4218 28.5086 71.3625 28.431C71.2701 28.3121 71.337 28.2181 71.501 28.1046C71.7512 27.9286 71.9905 27.7094 72.2421 27.5168C72.3047 27.4728 72.3727 27.4503 72.4338 27.423C72.3916 27.57 72.3564 27.722 72.3004 27.8592C72.2724 27.9278 72.2001 28.0002 72.0579 28.2ZM75.7537 31.4496C75.7526 31.378 75.7362 31.3132 75.7351 31.2416C75.7878 31.226 75.8657 31.1752 75.8864 31.1899C75.9141 31.2096 75.8846 31.2949 75.8719 31.3567C75.8399 31.387 75.7926 31.4242 75.7537 31.4496ZM68.5765 44.9302C68.5111 45.0076 68.3863 45.0073 68.2961 45.0316C68.2808 45.0385 68.2855 44.9002 68.3204 44.8365C68.4404 44.6386 68.5811 44.4555 68.6997 44.2743C68.6927 44.2694 68.6942 44.2527 68.6873 44.2478C68.6887 44.2312 68.7054 44.2076 68.7222 44.1841C68.6851 44.1046 68.6327 44.0319 68.6552 43.9417C68.6821 43.8015 68.8279 43.7283 68.8454 43.8647C68.8534 43.9412 68.7836 44.0685 68.7291 44.1891C68.7429 44.1989 68.7415 44.2156 68.7553 44.2254C68.7469 44.2372 68.7302 44.2607 68.7218 44.2724C68.8627 44.4257 68.8285 44.6493 68.5765 44.9302ZM78.3686 32.4429C78.4075 32.4175 78.5068 32.5413 78.4981 32.6413C78.496 32.8345 78.448 33.0482 78.4154 33.2551C78.3404 33.2726 78.2793 33.2999 78.2211 33.2939C77.9716 33.2934 77.8963 33.0627 78.054 32.7679C78.1308 32.6454 78.2671 32.5123 78.3686 32.4429ZM69.7316 45.5752C69.5875 45.5435 69.4813 45.4148 69.3638 45.3311L69.3554 45.3429C69.2725 45.2839 69.1644 45.2601 69.1218 45.159C69.0916 45.0844 69.1254 44.9491 69.1661 44.8187C69.1759 44.7903 69.2843 44.7258 69.3469 44.6818C69.7735 44.4189 70.063 44.4656 70.2671 44.7348C70.3581 44.8703 70.3742 45.0234 70.2346 45.2781C70.0517 45.6082 69.8687 45.6019 69.7316 45.5752ZM70.988 45.8143C70.948 45.7681 70.9985 45.6093 71.0087 45.4926C71.1182 45.4997 71.2458 45.4666 71.3135 45.5325C71.3604 45.5836 71.3099 45.7424 71.3067 45.864C71.1986 45.8402 71.0571 45.8634 70.988 45.8143ZM80.585 34.3034C80.5796 34.2818 80.581 34.2651 80.5755 34.2435C80.5701 34.222 80.5715 34.2053 80.5661 34.1837C80.6355 34.1446 80.7065 34.0889 80.7759 34.0498C80.7632 34.1115 80.7658 34.1665 80.753 34.2282C80.6989 34.2605 80.6461 34.2761 80.585 34.3034ZM85.276 28.56C85.2069 28.5108 85.1894 28.3744 85.1537 28.2782C85.2523 28.2422 85.3927 28.1473 85.4563 28.1749C85.5338 28.2124 85.5361 28.3556 85.5772 28.4733C85.4648 28.4996 85.3328 28.5827 85.276 28.56ZM87.6403 29.8176C87.6429 29.8725 87.6371 29.9392 87.6328 29.9892C87.58 30.0048 87.5273 30.0204 87.4746 30.036C87.4636 29.9928 87.4443 29.9614 87.4403 29.9231C87.5014 29.8958 87.5709 29.8567 87.6403 29.8176ZM82.8297 37.1045C82.5246 37.1529 82.2921 37.0406 82.2851 36.6993C82.2883 36.5777 82.4948 36.2289 82.6101 36.1694C82.9407 35.9974 83.2696 36.2669 83.2683 36.62C83.2737 36.6416 83.2486 36.6768 83.2305 36.717C83.2054 36.7523 83.1872 36.7924 83.1705 36.8159C83.0439 36.9206 82.9116 37.092 82.8297 37.1045ZM89.1821 31.9238C89.0283 31.9205 88.8591 31.9241 88.9351 31.6418C88.9463 31.5967 89.0049 31.5144 89.0271 31.5125C89.1296 31.5147 89.2238 31.5286 89.3181 31.5425C89.3385 31.6456 89.3505 31.7604 89.364 31.8585C89.296 31.8809 89.2265 31.92 89.1821 31.9238ZM91.9531 29.4346C91.7814 29.3832 91.7825 29.1184 91.9352 29.05C92.0352 28.9973 92.1669 29.0025 92.2207 29.0585C92.2553 29.0831 92.2579 29.138 92.2521 29.2047C92.2546 29.2596 92.2488 29.3263 92.2583 29.3862C92.1543 29.4007 92.0321 29.4553 91.9531 29.4346ZM93.6268 31.1213C93.5963 31.1349 93.5672 31.1319 93.545 31.1338C93.2249 31.1008 93.0291 30.8198 92.6029 30.9945C92.4654 31.056 92.4383 30.5233 92.5583 30.3255C92.5848 30.2735 92.6586 30.1844 92.6739 30.1776C93.1937 30.1934 93.5462 30.4443 93.7635 30.8999C93.769 30.9215 93.7745 30.9431 93.7563 30.9832C93.7465 31.0117 93.7436 31.045 93.7338 31.0734C93.6948 31.0988 93.6574 31.1076 93.6268 31.1213ZM94.5186 35.7213C94.4909 35.7016 94.5218 35.5997 94.5276 35.533C94.5956 35.5106 94.6818 35.448 94.7164 35.4726C94.744 35.4922 94.7048 35.6059 94.6906 35.6844C94.631 35.695 94.5462 35.7409 94.5186 35.7213ZM96.7224 37.9799C96.6144 37.9562 96.523 37.9089 96.4401 37.8499C96.3157 37.7613 96.1927 37.6561 96.0766 37.5558C96.0683 37.5676 96.0683 37.5676 96.0599 37.5793C95.8776 37.3965 95.6702 37.2489 95.513 37.0308C95.473 36.9847 95.5682 36.7338 95.6519 36.6163C95.7202 36.5056 95.873 36.4372 95.9828 36.3561C95.9088 37.2063 96.5603 37.2273 96.9263 37.5763C96.9733 37.6274 96.9213 37.8028 96.9181 37.9245C96.8501 37.9469 96.7722 37.9977 96.7224 37.9799ZM102.447 43.1338C102.417 43.1474 102.371 43.1679 102.333 43.1767C102.296 43.1854 102.265 43.1991 102.259 43.1942C102.209 42.9998 102.283 42.9108 102.458 42.9288C102.452 42.9955 102.453 43.0671 102.447 43.1338ZM102.896 43.7183C102.818 43.6809 102.752 43.5101 102.794 43.4513C102.957 43.178 103.062 43.3234 103.177 43.3521C103.189 43.4669 103.194 43.5767 103.215 43.6798C103.104 43.6893 102.966 43.7508 102.896 43.7183ZM105.058 43.3277C105.05 43.3394 105.035 43.3463 105.026 43.358C105.011 43.3649 105.004 43.3599 104.989 43.3668C104.733 43.6977 104.498 44.0268 104.237 44.3362C104.072 44.5379 104.018 44.4818 104.015 44.267C104.003 43.7276 104.058 43.607 104.506 43.4305C104.673 43.372 104.827 43.3753 104.99 43.3501C105.007 43.3266 105.015 43.3148 105.032 43.2913C105.044 43.3179 105.051 43.3228 105.058 43.3277C105.484 42.8166 105.618 43.1416 105.827 43.2725C105.835 43.2607 105.843 43.249 105.859 43.2421L105.854 43.2921C105.847 43.2872 105.84 43.2823 105.827 43.2725C105.381 43.8404 105.259 43.4703 105.058 43.3277ZM114.149 52.5758C113.979 52.7559 113.829 52.7909 113.707 52.669C113.6 52.557 113.545 52.4294 113.737 52.1591C113.938 51.877 114.232 51.7855 114.333 51.9809C114.398 52.1517 114.352 52.3487 114.149 52.5758ZM97.0503 85.0905C97.035 85.0974 96.9674 85.0315 96.9757 85.0198C97.1153 84.765 97.2136 84.8172 97.3049 84.8645C97.3201 84.8577 97.3369 84.8342 97.3521 84.8273L97.3463 84.894C97.3325 84.8842 97.3187 84.8744 97.2965 84.8763C97.2325 84.9369 97.1449 85.0162 97.0503 85.0905ZM91.9384 94.6592C91.7958 94.6109 91.6881 94.4988 91.5637 94.4103C91.5721 94.3985 91.5804 94.3868 91.5888 94.375C91.4229 94.257 91.2555 94.1556 91.098 94.0258C91.0634 94.0012 91.0612 93.858 91.0765 93.8511C91.1878 93.7533 91.3074 93.6437 91.4143 93.5959C91.7351 93.4524 92.0545 93.3256 92.1055 93.7513C92.1187 93.9377 92.1943 94.0801 92.2297 94.2646C92.257 94.3725 92.2676 94.504 92.2796 94.6188C92.1618 94.6234 92.0243 94.6849 91.9384 94.6592ZM94.7145 95.9089C94.473 95.9849 94.141 96.1735 93.9929 96.1035C93.4949 95.8376 93.0637 95.4777 92.6159 95.1413C92.526 95.0773 92.6663 94.6461 92.8165 94.5228C92.9347 94.4299 93.107 94.3047 93.1623 94.3441C93.4694 94.5272 93.7514 94.7455 94.0417 94.9521C94.0584 94.9286 94.0751 94.9051 94.0919 94.8816C94.3571 95.1235 94.6238 95.3486 94.8807 95.6023C94.9152 95.6268 94.9203 95.7367 94.8938 95.7886C94.8673 95.8406 94.7672 95.8933 94.7145 95.9089ZM95.7292 96.6487C95.4735 96.8031 95.2244 97.0507 94.9742 97.2267C94.7324 97.391 94.6443 97.2221 94.5992 97.066C94.5376 96.8452 94.7423 96.6014 94.9147 96.4762C95.2358 96.2445 95.5679 96.0559 95.8127 96.1947C95.8597 96.2458 95.8928 96.2871 95.919 96.3234C95.9947 96.4658 95.9223 96.5382 95.7292 96.6487ZM100.211 98.4571C99.6044 98.6804 99.0676 99.1128 98.5662 99.7296C98.5091 99.7952 98.2886 99.7977 98.2584 99.7231C97.8999 98.8661 97.4705 98.0648 97.2941 97.0542C97.2697 96.9129 97.3519 96.812 97.5407 96.7516C98.411 96.4504 99.0403 96.4734 99.4936 96.8314C100.046 96.9767 99.822 97.9502 100.349 98.1308C100.47 98.1811 100.371 98.3937 100.211 98.4571Z" fill="#FFA800"/>
</svg>
